<?xml version="1.0" standalone="no"?>
<!DOCTYPE svg PUBLIC "-//W3C//DTD SVG 1.1//EN" "http://www.w3.org/Graphics/SVG/1.1/DTD/svg11.dtd" >
<svg>
<metadata>
Created by FontForge 20110222 at Tue Sep 16 08:30:01 2014
 By Orthosie Webhosting
[c] Copyright 1994-2004, The Font Bureau, Inc. Designed by David Berlow. Truth is a Trademark of The Font Bureau, Inc. All rights reserved.
</metadata>
<defs>
<font id="TruthCYRThin" horiz-adv-x="500" >
  <font-face 
    font-family="TruthCYRThin"
    font-weight="100"
    font-stretch="normal"
    units-per-em="1000"
    panose-1="2 0 5 3 3 0 0 2 0 4"
    ascent="800"
    descent="-200"
    x-height="550"
    cap-height="737"
    bbox="-142 -240 1132 961"
    underline-thickness="20"
    underline-position="-113"
    unicode-range="U+0020-FB02"
  />
<missing-glyph 
 />
    <glyph glyph-name="fi" unicode="fi" horiz-adv-x="423" 
d="M345 0h-13v540h-233v-540h-13v540h-77v11h77v89q0 44 27.5 75.5t83.5 31.5q52 0 85 -12l-5 -13q-30 12 -79 12q-50 0 -74.5 -27.5t-24.5 -73.5v-82h246v-551z" />
    <glyph glyph-name="fl" unicode="fl" horiz-adv-x="423" 
d="M345 0h-13v711q-16 9 -47.5 16t-56.5 7q-61 0 -95 -34.5t-34 -96.5v-52h141v-11h-141v-540h-13v540h-77v11h77v59q0 64 37.5 100.5t103.5 36.5q65 0 111 -23h7v-724z" />
    <glyph glyph-name=".notdef" 
 />
    <glyph glyph-name=".null" horiz-adv-x="0" 
 />
    <glyph glyph-name="nonmarkingreturn" horiz-adv-x="333" 
 />
    <glyph glyph-name="space" unicode=" " horiz-adv-x="259" 
 />
    <glyph glyph-name="space" unicode="&#xa0;" horiz-adv-x="259" 
 />
    <glyph glyph-name="exclam" unicode="!" horiz-adv-x="320" 
d="M167 737v-590h-14v590h14zM186 0h-52v72h52v-72z" />
    <glyph glyph-name="quotedbl" unicode="&#x22;" horiz-adv-x="386" 
d="M279 737v-237h-14v237h14zM121 737v-237h-14v237h14z" />
    <glyph glyph-name="numbersign" unicode="#" horiz-adv-x="668" 
d="M662 518l-2 -13h-149l-63 -265h162l-2 -13h-164l-54 -227h-14l53 227h-229l-54 -227h-14l53 227h-165l3 13h165l63 265h-179l3 13h179l52 219h17l-53 -219h228l52 219h17l-53 -219h148zM495 505h-228l-63 -265h228z" />
    <glyph glyph-name="dollar" unicode="$" horiz-adv-x="543" 
d="M500 187q0 -43 -14 -76.5t-36.5 -54.5t-54 -34.5t-62.5 -18.5t-66 -5l-4 -88h-13l4 88q-128 3 -200 38v12q30 -14 87 -25.5t114 -12.5l18 380q-42 13 -62 19.5t-53 22.5t-48.5 32t-28 43.5t-12.5 61.5q0 169 219 169l4 85h13l-4 -86q90 -5 159 -43v-14q-64 37 -160 44
l-15 -325q51 -15 80.5 -27.5t65 -36t52.5 -60.5t17 -88zM288 725q-206 0 -206 -154q0 -32 11.5 -57t26.5 -40.5t44.5 -30t49.5 -21.5t59 -19zM487 188q0 38 -12 68t-29 48.5t-47 35t-53.5 25.5t-61.5 20l-17 -375q38 0 73.5 8.5t70 27t55.5 55.5t21 87z" />
    <glyph glyph-name="percent" unicode="%" horiz-adv-x="805" 
d="M339 562q0 -78 -44 -118.5t-111 -40.5t-110 38t-43 121v27q0 81 43 120t112 39q67 0 110 -38t43 -121v-27zM635 737l-449 -737h-14l448 737h15zM776 153q0 -78 -44 -118.5t-111 -40.5t-110 38t-43 121v27q0 81 43 120t112 39q67 0 110 -38t43 -121v-27zM327 566v18
q0 79 -41 116t-100 37q-62 0 -104.5 -38.5t-38.5 -113.5v-18q0 -79 41 -116t100 -37q61 0 102 38t41 114zM764 157v18q0 79 -41 116t-100 37q-61 0 -102 -38t-41 -114v-18q0 -79 41 -116t100 -37q61 0 102 38t41 114z" />
    <glyph glyph-name="ampersand" unicode="&#x26;" horiz-adv-x="708" 
d="M244 374l296 -258q78 91 118 256h13q-43 -173 -121 -265l122 -107h-14l-116 99q-59 -66 -126.5 -88t-145.5 -22q-105 0 -165.5 51.5t-60.5 134.5q0 118 179 203q-64 57 -97 105t-33 108q0 71 45 113.5t125 42.5t125 -45t45 -113q0 -69 -44.5 -118.5t-144.5 -96.5z
M234 383q99 46 142.5 93.5t43.5 111.5q0 63 -41.5 105t-114.5 42q-76 0 -117 -39.5t-41 -104.5q0 -58 30.5 -102t97.5 -106zM532 108l-299 261q-88 -42 -131.5 -88.5t-43.5 -106.5q0 -72 56 -122.5t155 -50.5q166 0 263 107z" />
    <glyph glyph-name="quotesingle" unicode="'" horiz-adv-x="250" 
d="M130 737v-233h-14v233h14z" />
    <glyph glyph-name="parenleft" unicode="(" horiz-adv-x="363" 
d="M329 -87q-129 20 -199 126t-70 297q0 78 14 143.5t44 122t83.5 91.5t127.5 43v-12q-69 -8 -119.5 -42t-79 -88.5t-41.5 -118t-13 -139.5q0 -365 253 -412v-11z" />
    <glyph glyph-name="parenright" unicode=")" horiz-adv-x="363" 
d="M304 336q0 -191 -70 -297t-199 -126v11q253 47 253 412q0 76 -13 139.5t-41.5 118t-79 88.5t-119.5 42v12q74 -8 127.5 -43t83.5 -91.5t44 -122t14 -143.5z" />
    <glyph glyph-name="asterisk" unicode="*" horiz-adv-x="534" 
d="M428 453h-147l115 -115l-9 -9l-119 119l-121 -121l-9 9l117 117h-147v13h147l-115 115l9 9l119 -119l121 121l9 -9l-117 -117h147v-13z" />
    <glyph glyph-name="plus" unicode="+" horiz-adv-x="480" 
d="M408 347h-162v-161h-14v161h-160v12h160v162h14v-162h162v-12z" />
    <glyph glyph-name="comma" unicode="," horiz-adv-x="285" 
d="M174 -13q0 -41 -15.5 -57t-48.5 -16v13q30 0 40.5 13.5t10.5 59.5h-39v87h52v-100z" />
    <glyph glyph-name="hyphen" unicode="-" horiz-adv-x="581" 
d="M529 330h-479v15h479v-15z" />
    <glyph glyph-name="hyphen" unicode="&#xad;" horiz-adv-x="581" 
d="M529 330h-479v15h479v-15z" />
    <glyph glyph-name="period" unicode="." horiz-adv-x="285" 
d="M174 0h-52v87h52v-87z" />
    <glyph glyph-name="slash" unicode="/" horiz-adv-x="378" 
d="M378 737l-376 -820h-14l376 820h14z" />
    <glyph glyph-name="zero" unicode="0" horiz-adv-x="479" 
d="M437 270q0 -148 -54 -215t-145 -67q-98 0 -147 65.5t-49 216.5v194q0 148 54 215t145 67q98 0 147 -65.5t49 -216.5v-194zM424 278v176q0 156 -44.5 218.5t-138.5 62.5q-186 0 -186 -281v-176q0 -154 44.5 -216.5t138.5 -62.5q186 0 186 279z" />
    <glyph glyph-name="one" unicode="1" horiz-adv-x="249" 
d="M20 645q69 3 97.5 11t36 23.5t8.5 56.5h9v-736h-12v664q-9 -9 -19.5 -14.5t-40.5 -10.5t-79 -6v12z" />
    <glyph glyph-name="two" unicode="2" horiz-adv-x="479" 
d="M469 0h-447v18q208 134 308.5 274.5t100.5 257.5q0 183 -191 183q-92 0 -140 -49t-58 -119h-14q8 77 61.5 129t149.5 52q206 0 206 -195q0 -120 -101 -262t-309 -276h434v-13z" />
    <glyph glyph-name="three" unicode="3" horiz-adv-x="479" 
d="M450 193q0 -97 -53.5 -151t-155.5 -54q-52 0 -93 15.5t-64.5 39.5t-35.5 43.5t-17 37.5l12 8q4 -17 15.5 -36t33 -42t61.5 -38t91 -15q95 0 143.5 51t48.5 141q0 193 -228 193h-92v13h92q205 0 205 174q0 68 -42.5 115t-124.5 47q-74 0 -121 -44.5t-52 -111.5h-15
q5 72 56 119.5t132 47.5q88 0 134 -49t46 -125q0 -160 -163 -180q83 -6 135 -57t52 -142z" />
    <glyph glyph-name="four" unicode="4" horiz-adv-x="479" 
d="M477 295h-81v-295h-13v295h-377l-1 23l368 423h23v-434h81v-12zM383 307v425l-372 -425h372z" />
    <glyph glyph-name="five" unicode="5" horiz-adv-x="501" 
d="M468 256q0 -133 -60.5 -200t-165.5 -67q-82 0 -141 41t-85 105l12 7q14 -54 76 -98t139 -44q95 0 153.5 60.5t58.5 195.5q0 69 -16 118t-44 74.5t-60.5 37t-71.5 11.5q-65 0 -109 -25t-73 -88l-21 9l14 344h347v-12h-333l-14 -329q49 113 188 113q206 0 206 -253z" />
    <glyph glyph-name="six" unicode="6" horiz-adv-x="479" 
d="M454 243q0 -120 -57 -187.5t-148 -67.5q-107 0 -167 103q-40 69 -40 225q0 102 11.5 178.5t31 124t49 76.5t60.5 40t70 11q74 0 132 -18v-12q-72 19 -132 19q-46 0 -81.5 -18.5t-65.5 -62.5t-46 -125.5t-16 -198.5q19 84 72 126.5t122 42.5q205 0 205 -256zM442 244
q0 115 -47.5 179.5t-145.5 64.5q-87 0 -139.5 -66t-52.5 -164q0 -107 48.5 -183t143.5 -76q83 0 138 64t55 181z" />
    <glyph glyph-name="seven" unicode="7" horiz-adv-x="479" 
d="M467 719q-86 -71 -145.5 -157t-87 -162t-37.5 -157t-7 -137t13 -106h-14q-11 51 -14.5 109.5t7.5 139.5t39 158t87.5 162.5t144.5 154.5h-418v13h432v-18z" />
    <glyph glyph-name="eight" unicode="8" horiz-adv-x="498" 
d="M469 208q0 -107 -60.5 -163.5t-159.5 -56.5q-94 0 -157 59t-63 159q0 84 44.5 132.5t107.5 64.5v5q-58 10 -97 55t-39 110q0 77 52.5 125t148.5 48q102 0 151.5 -49t49.5 -124q0 -61 -39 -106t-99 -60v-5q69 -15 114.5 -63t45.5 -131zM434 572q0 69 -49 116t-139 47
t-139 -46.5t-49 -115.5t50.5 -115.5t139.5 -46.5q81 0 133.5 47.5t52.5 113.5zM457 208q0 86 -61.5 138.5t-147.5 52.5q-93 0 -149.5 -51.5t-56.5 -141.5q0 -95 59 -151t148 -56q95 0 151.5 53t56.5 156z" />
    <glyph glyph-name="nine" unicode="9" horiz-adv-x="479" 
d="M24 481q0 126 57 195.5t151 69.5q48 0 84.5 -15t66.5 -50.5t46 -103t16 -165.5q0 -122 -17.5 -207.5t-49.5 -130.5t-70 -64t-87 -19q-60 0 -111 16v14q43 -19 110 -19q46 0 82 18t67 61.5t48 126.5t17 202q-21 -90 -79 -134.5t-129 -44.5q-91 0 -146.5 64.5t-55.5 185.5z
M37 480q0 -114 51 -175.5t138 -61.5q65 0 113 36t69 85t21 100q0 271 -197 271q-91 0 -143 -64.5t-52 -190.5z" />
    <glyph glyph-name="colon" unicode=":" horiz-adv-x="296" 
d="M169 474h-42v87h42v-87zM169 0h-42v87h42v-87z" />
    <glyph glyph-name="semicolon" unicode=";" horiz-adv-x="296" 
d="M169 474h-42v87h42v-87zM169 -13q0 -41 -15.5 -57t-48.5 -16v13q30 0 40.5 13.5t10.5 59.5h-29v87h42v-100z" />
    <glyph glyph-name="less" unicode="&#x3c;" horiz-adv-x="479" 
d="M459 83l-416 215v7l416 217v-13l-402 -207l402 -206v-13z" />
    <glyph glyph-name="equal" unicode="=" horiz-adv-x="479" 
d="M416 455h-355v12h355v-12zM416 221h-355v12h355v-12z" />
    <glyph glyph-name="greater" unicode="&#x3e;" horiz-adv-x="479" 
d="M20 83v13l402 206l-402 207v13l416 -217v-7z" />
    <glyph glyph-name="question" unicode="?" horiz-adv-x="448" 
d="M413 606q0 -59 -30 -94.5t-89 -59.5q-65 -26 -95 -72t-30 -127v-81h-14v87q0 86 35.5 132.5t100.5 73.5q57 24 83 54.5t26 86.5q0 53 -40 91t-130 38q-101 0 -191 -56v14q95 53 191 53q99 0 141 -41.5t42 -98.5zM188 0h-52v72h52v-72z" />
    <glyph glyph-name="at" unicode="@" horiz-adv-x="913" 
d="M869 340q0 -116 -41.5 -179t-117.5 -63q-15 0 -31 4.5t-36.5 15.5t-35.5 37.5t-20 63.5q-7 -51 -50 -86t-95 -35q-69 0 -115.5 50.5t-46.5 150.5q0 92 44.5 147t123.5 55q52 0 90.5 -32.5t43.5 -73.5v103h12v-224q0 -81 30 -122.5t86 -41.5q64 0 104.5 55.5t40.5 174.5
q0 161 -105.5 267t-275.5 106q-171 0 -284 -113t-113 -306q0 -213 107 -319.5t284 -106.5q53 0 112 17t92 36l6 -13q-99 -52 -210 -52q-85 0 -155.5 23.5t-128 73.5t-89.5 137t-32 204q0 197 115.5 314.5t294.5 117.5q97 0 174.5 -33.5t125 -89.5t72 -123.5t24.5 -139.5z
M581 277v49q0 79 -39 121t-94 42q-73 0 -113.5 -50.5t-40.5 -139.5q0 -83 40 -136t108 -53q58 0 98.5 44t40.5 123z" />
    <glyph glyph-name="A" unicode="A" horiz-adv-x="539" 
d="M538 0h-14l-80 231h-351l-76 -231h-16l250 737h31zM441 243l-175 491l-169 -491h344z" />
    <glyph glyph-name="B" unicode="B" horiz-adv-x="600" 
d="M565 209q0 -101 -59 -155t-164 -54h-244v737h242q89 0 134 -45.5t45 -126.5q0 -64 -29 -111t-85 -53q76 -8 118 -65t42 -127zM506 565q0 83 -45 121t-120 38h-229v-317h270q50 0 87 40.5t37 117.5zM551 209q0 84 -49 135t-134 51h-256v-382h228q104 0 157.5 50.5
t53.5 145.5z" />
    <glyph glyph-name="C" unicode="C" horiz-adv-x="535" 
d="M513 16q-76 -28 -174 -28q-135 0 -211 91.5t-76 270.5v30q0 174 72 270.5t214 96.5q89 0 171 -26v-16q-19 9 -71.5 18.5t-101.5 9.5q-131 0 -200 -93.5t-69 -269.5v-10q0 -98 22.5 -170t62 -112t86.5 -59t102 -19q101 0 173 31v-15z" />
    <glyph glyph-name="D" unicode="D" horiz-adv-x="646" 
d="M597 353q0 -178 -67.5 -265.5t-214.5 -87.5h-217v737h214q144 0 214.5 -85.5t70.5 -268.5v-30zM582 358v20q0 182 -68 264t-213 82h-189v-711h192q149 0 213.5 81.5t64.5 263.5z" />
    <glyph glyph-name="E" unicode="E" horiz-adv-x="531" 
d="M514 0h-416v737h411v-13h-397v-344h328v-13h-328v-354h402v-13z" />
    <glyph glyph-name="F" unicode="F" horiz-adv-x="482" 
d="M488 724h-376v-344h319v-13h-319v-367h-14v737h390v-13z" />
    <glyph glyph-name="G" unicode="G" horiz-adv-x="592" 
d="M542 25q-20 -11 -81.5 -24t-116.5 -13q-138 0 -215 90.5t-77 271.5v40q0 175 77 266t210 91q89 0 149 -18v-15q-60 20 -150 20q-130 0 -200.5 -92t-70.5 -267v-15q0 -185 75.5 -272t200.5 -87q93 0 185 35v247h-182v14h196v-272z" />
    <glyph glyph-name="H" unicode="H" horiz-adv-x="654" 
d="M556 0h-14v367h-430v-367h-14v737h14v-357h430v357h14v-737z" />
    <glyph glyph-name="I" unicode="I" horiz-adv-x="209" 
d="M112 0h-14v737h14v-737z" />
    <glyph glyph-name="J" unicode="J" horiz-adv-x="452" 
d="M348 200q0 -116 -37.5 -161.5t-115.5 -45.5q-97 0 -148 23v12q56 -23 148 -23q70 0 104.5 42t34.5 148v542h14v-537z" />
    <glyph glyph-name="K" unicode="K" horiz-adv-x="644" 
d="M621 0h-16l-282 467l-211 -252v-215h-14v737h14v-504l422 504h17l-217 -259z" />
    <glyph glyph-name="L" unicode="L" horiz-adv-x="506" 
d="M477 0h-379v737l14 3v-727h365v-13z" />
    <glyph glyph-name="M" unicode="M" horiz-adv-x="826" 
d="M728 0h-14v726l-283 -726h-26l-293 732v-732h-14v737h26l294 -732l288 732h22v-737z" />
    <glyph glyph-name="N" unicode="N" horiz-adv-x="664" 
d="M566 0h-21l-433 731v-731h-14v737h26l428 -725v725h14v-737z" />
    <glyph glyph-name="O" unicode="O" horiz-adv-x="677" 
d="M620 345q0 -171 -71.5 -264t-212.5 -93q-130 0 -207 90.5t-77 264.5v42q0 179 77 270.5t207 91.5q138 0 211 -93t73 -269v-40zM606 355v20q0 359 -270 359q-127 0 -198.5 -90.5t-71.5 -268.5v-18q0 -170 70.5 -262.5t199.5 -92.5q131 0 200.5 87.5t69.5 265.5z" />
    <glyph glyph-name="P" unicode="P" horiz-adv-x="574" 
d="M536 528q0 -96 -55 -144.5t-158 -48.5h-211v-335h-14v737h231q207 0 207 -183v-26zM522 530v19q0 83 -46 129t-141 46h-223v-376h223q89 0 138 46.5t49 135.5z" />
    <glyph glyph-name="Q" unicode="Q" horiz-adv-x="677" 
d="M620 345q0 -181 -75 -268.5t-199 -87.5q0 -83 40.5 -113t107.5 -30h71v-13h-72q-161 0 -161 156q-130 0 -205 91t-75 261v44q0 173 74 267.5t210 94.5q133 0 208.5 -90.5t75.5 -271.5v-40zM606 361v6q0 367 -270 367q-130 0 -200 -93t-70 -273v-10q0 -175 71.5 -265.5
t204.5 -90.5q123 0 193.5 86t70.5 273z" />
    <glyph glyph-name="R" unicode="R" horiz-adv-x="611" 
d="M544 0h-14q0 142 -20.5 224t-56 112.5t-94.5 30.5h-247v-367h-14v737h247q85 0 132 -43t47 -112v-43q0 -76 -37.5 -119.5t-95.5 -43.5q35 -4 60.5 -21.5t47.5 -57.5t33.5 -114.5t11.5 -182.5zM511 550v23q0 66 -40.5 108.5t-118.5 42.5h-240v-344h247q71 0 111.5 43.5
t40.5 126.5z" />
    <glyph glyph-name="S" unicode="S" horiz-adv-x="595" 
d="M528 177q0 -83 -64.5 -135t-192.5 -52q-136 0 -217 37v16q91 -40 218 -40q124 0 183 49t59 127q0 68 -42.5 108t-161.5 86q-141 55 -184.5 98.5t-43.5 123.5q0 68 64 110t183 42q66 0 155 -24v-16q-90 27 -156 27q-112 0 -172 -39.5t-60 -101.5q0 -35 7.5 -58.5t31 -49
t67.5 -49t116 -51.5q121 -47 165.5 -90t44.5 -118z" />
    <glyph glyph-name="T" unicode="T" horiz-adv-x="530" 
d="M525 724h-253v-724h-14v724h-253v13h520v-13z" />
    <glyph glyph-name="U" unicode="U" horiz-adv-x="680" 
d="M592 237q0 -252 -251 -252q-107 0 -180 62t-73 190v500h14v-518q0 -101 66.5 -161.5t172.5 -60.5q119 0 178 59.5t59 170.5v510h14v-500z" />
    <glyph glyph-name="V" unicode="V" horiz-adv-x="553" 
d="M552 737l-271 -737h-26l-254 737h15l252 -731l270 731h14z" />
    <glyph glyph-name="W" unicode="W" horiz-adv-x="802" 
d="M797 737l-192 -737h-26l-179 734l-177 -734h-26l-189 737h15l187 -732l177 732h26l179 -732l191 732h14z" />
    <glyph glyph-name="X" unicode="X" horiz-adv-x="554" 
d="M545 0h-16l-258 368l-246 -368h-16l254 379l-252 358h16l243 -346l231 346h16l-239 -358z" />
    <glyph glyph-name="Y" unicode="Y" horiz-adv-x="610" 
d="M606 737l-294 -511v-226h-14v226l-294 511h14l287 -497l287 497h14z" />
    <glyph glyph-name="Z" unicode="Z" horiz-adv-x="541" 
d="M519 0h-494v18l484 706h-470v13h480v-19l-483 -705h483v-13z" />
    <glyph glyph-name="bracketleft" unicode="[" horiz-adv-x="291" 
d="M253 -109h-148v846h148v-13h-135v-820h135v-13z" />
    <glyph glyph-name="backslash" unicode="\" horiz-adv-x="378" 
d="M377 -83h-14l-364 820h14z" />
    <glyph glyph-name="bracketright" unicode="]" horiz-adv-x="291" 
d="M187 -109h-148v13h135v820h-135v13h148v-846z" />
    <glyph glyph-name="asciicircum" unicode="^" horiz-adv-x="550" 
d="M524 373h-16l-233 357l-233 -357h-16l236 364h26z" />
    <glyph glyph-name="underscore" unicode="_" horiz-adv-x="498" 
d="M498 -168h-498v13h498v-13z" />
    <glyph glyph-name="grave" unicode="`" 
d="M310 596h-14l-142 173h14z" />
    <glyph glyph-name="a" unicode="a" horiz-adv-x="522" 
d="M460 0h-11l-2 133q-11 -60 -66.5 -100t-137.5 -40q-90 0 -149.5 49.5t-59.5 147.5v6q0 78 54.5 135t153.5 57q73 0 127.5 -34.5t78.5 -100.5v174q0 57 -39 96t-130 39q-49 0 -100 -11.5t-81 -27.5v14q78 37 182 37q94 0 137 -40.5t43 -94.5v-439zM448 188v15
q0 63 -57.5 118t-146.5 55q-87 0 -142.5 -50t-55.5 -122v-19q0 -87 57.5 -134t140.5 -47q93 0 148.5 54t55.5 130z" />
    <glyph glyph-name="b" unicode="b" horiz-adv-x="551" 
d="M508 257q0 -266 -222 -266q-75 0 -129.5 39t-70.5 99l-2 -129h-11v737h12v-309q21 65 78.5 105t129.5 40q110 0 162.5 -66t52.5 -186v-64zM496 270v41q0 117 -49 183.5t-154 66.5q-72 0 -126.5 -43t-80.5 -116v-213q4 -81 58 -133t141 -52q102 0 156.5 58.5t54.5 207.5z
" />
    <glyph glyph-name="c" unicode="c" horiz-adv-x="474" 
d="M460 24q-66 -34 -164 -34q-119 0 -182.5 64t-63.5 216v24q0 143 65.5 211t183.5 68q93 0 147 -25v-15q-67 28 -152 28q-107 0 -169.5 -66t-62.5 -207v-10q0 -81 17 -137t50.5 -85.5t73 -41.5t93.5 -12q40 0 88 10t76 25v-13z" />
    <glyph glyph-name="d" unicode="d" horiz-adv-x="551" 
d="M485 0h-10l-2 166q-35 -174 -206 -174q-217 0 -217 272v53q0 120 63.5 188t161.5 68q77 0 128 -33t70 -88v285h12v-737zM472 195v238q-51 127 -197 127q-95 0 -153 -64t-58 -185v-41q0 -149 54 -207.5t149 -58.5q82 0 133 41t72 150z" />
    <glyph glyph-name="e" unicode="e" horiz-adv-x="550" 
d="M517 271h-455q0 -134 62 -201.5t174 -67.5q69 0 116 13.5t67 27.5v-11q-48 -42 -198 -42q-28 0 -55.5 5.5t-61 23.5t-58 46t-41.5 78.5t-17 115.5v40q0 123 69.5 198.5t172.5 75.5q104 0 164.5 -69.5t60.5 -194.5v-38zM503 283q1 138 -53 207.5t-158 69.5
q-100 0 -165 -73t-65 -204h441z" />
    <glyph glyph-name="f" unicode="f" horiz-adv-x="218" 
d="M282 735l-5 -13q-30 12 -79 12q-50 0 -74.5 -27.5t-24.5 -73.5v-82h117v-11h-117v-540h-13v540h-77v11h77v89q0 44 27.5 75.5t83.5 31.5q52 0 85 -12z" />
    <glyph glyph-name="g" unicode="g" horiz-adv-x="536" 
d="M487 13q0 -95 -55 -144t-154 -49q-118 0 -179 35v16q64 -38 179 -38q98 0 147.5 49.5t49.5 139.5v103q-17 -56 -70 -92t-131 -36q-107 0 -165.5 66t-58.5 198v39q0 125 60 199.5t166 74.5q86 0 136 -42t63 -104v128h12v-543zM475 198v145q0 111 -55.5 165.5t-143.5 54.5
q-104 0 -159 -76.5t-55 -193.5v-25q0 -132 55.5 -196t156.5 -64q91 0 146 55.5t55 134.5z" />
    <glyph glyph-name="h" unicode="h" horiz-adv-x="555" 
d="M483 0h-13v427q0 62 -40 98t-123 36q-72 0 -135 -44t-86 -116v-401h-13v737h12v-312q19 61 83 104.5t139 43.5q91 0 133.5 -38t42.5 -102v-433z" />
    <glyph glyph-name="i" unicode="i" horiz-adv-x="175" 
d="M106 629h-33v51h33v-51zM96 0h-13v562h13v-562z" />
    <glyph glyph-name="j" unicode="j" horiz-adv-x="185" 
d="M111 629h-33v51h33v-51zM101 -71q0 -100 -90 -100q-46 0 -98 13v14q45 -17 98 -17q34 0 55.5 22.5t21.5 58.5v642h13v-633z" />
    <glyph glyph-name="k" unicode="k" horiz-adv-x="480" 
d="M482 0h-17l-315 316l-64 -63v-253h-13v737h12v-470l296 295h16l-238 -238z" />
    <glyph glyph-name="l" unicode="l" horiz-adv-x="159" 
d="M86 0h-13v737h13v-737z" />
    <glyph glyph-name="m" unicode="m" horiz-adv-x="945" 
d="M880 0h-13v429q0 59 -40 95.5t-113 36.5q-27 0 -57.5 -7.5t-65 -24t-64 -50.5t-44.5 -81v-398h-13v424q0 137 -165 137q-78 0 -140.5 -50t-78.5 -116v-395h-13v553h11l1 -133q11 54 75 103.5t144 49.5q88 0 133.5 -37.5t44.5 -114.5q24 67 84.5 109.5t138.5 42.5
q94 0 134.5 -40.5t40.5 -86.5v-446z" />
    <glyph glyph-name="n" unicode="n" horiz-adv-x="555" 
d="M483 0h-13v433q0 57 -40 92.5t-113 35.5q-84 0 -144.5 -44t-86.5 -117v-400h-13v553h11l1 -133q20 63 81.5 108t149.5 45q81 0 124 -39.5t43 -106.5v-427z" />
    <glyph glyph-name="o" unicode="o" horiz-adv-x="586" 
d="M536 264q0 -274 -243 -274q-117 0 -180 64t-63 210v36q0 126 60.5 199.5t182.5 73.5q121 0 182 -73t61 -200v-36zM523 278v8q0 129 -56.5 202t-173.5 73t-173.5 -73t-56.5 -202v-8q0 -147 58.5 -211.5t171.5 -64.5q119 0 174.5 67.5t55.5 208.5z" />
    <glyph glyph-name="p" unicode="p" horiz-adv-x="560" 
d="M508 268q0 -144 -53 -210t-159 -66q-85 0 -140 39.5t-70 85.5v-284h-13v720h12l1 -122q24 61 76 101.5t128 40.5q110 0 164 -69.5t54 -178.5v-57zM494 277v37q0 111 -49.5 179t-155.5 68q-72 0 -123.5 -40.5t-79.5 -107.5v-278q18 -51 74.5 -91t135.5 -40q100 0 149 63.5
t49 209.5z" />
    <glyph glyph-name="q" unicode="q" horiz-adv-x="558" 
d="M485 -167h-13v328q-11 -51 -34 -87t-52.5 -52.5t-55 -23t-51.5 -6.5q-111 0 -170 60.5t-59 204.5v42q0 142 64 208t162 66q68 0 121.5 -29t74.5 -91l3 109h10v-729zM472 191v245q-55 124 -198 124q-95 0 -152.5 -65.5t-57.5 -204.5v-29q0 -143 56 -200t153 -57
q82 0 130 45.5t69 141.5z" />
    <glyph glyph-name="r" unicode="r" horiz-adv-x="494" 
d="M448 440h-12q0 58 -38.5 89.5t-108.5 31.5q-74 0 -129 -52.5t-74 -133.5v-375h-13v553h11l1 -152q14 68 72 120t133 52q80 0 119 -36.5t39 -96.5z" />
    <glyph glyph-name="s" unicode="s" horiz-adv-x="422" 
d="M375 142q0 -152 -177 -152q-106 0 -164 31v18q49 -37 162 -37q73 0 119.5 33.5t46.5 106.5q0 35 -13 60.5t-40.5 43.5t-50.5 28t-64 23q-34 11 -56 21t-45 26.5t-34.5 40.5t-11.5 56q0 64 45 98t106 34q86 0 148 -31v-18q-58 36 -152 36q-62 0 -98 -34.5t-36 -83.5
q0 -53 35 -80.5t104 -51.5q86 -30 115 -49q61 -42 61 -119z" />
    <glyph glyph-name="t" unicode="t" horiz-adv-x="395" 
d="M363 540h-211v-413q0 -62 34.5 -93.5t90.5 -31.5q46 0 90 14v-14q-41 -13 -88 -13q-63 0 -102 35t-39 110v406h-138v11h138v134h14v-134h211v-11z" />
    <glyph glyph-name="u" unicode="u" horiz-adv-x="555" 
d="M480 0h-11l-1 142q-20 -64 -80 -108t-139 -44q-88 0 -133.5 38t-45.5 98v427h13v-421q0 -59 41 -94.5t131 -35.5q71 0 130.5 46t81.5 114v391h13v-553z" />
    <glyph glyph-name="v" unicode="v" horiz-adv-x="530" 
d="M527 558l-253 -558h-18l-253 558h14l248 -551l248 551h14z" />
    <glyph glyph-name="w" unicode="w" horiz-adv-x="800" 
d="M400 552l-183 -552h-18l-192 558h14l187 -553l183 553h18l183 -553l187 553h14l-192 -558h-18z" />
    <glyph glyph-name="x" unicode="x" horiz-adv-x="509" 
d="M503 0h-15l-239 278l-227 -278h-15l235 286l-233 271h15l225 -262l215 262h15l-222 -271z" />
    <glyph glyph-name="y" unicode="y" horiz-adv-x="530" 
d="M527 558l-330 -725h-13l74 162l-255 563h14l248 -551l249 551h13z" />
    <glyph glyph-name="z" unicode="z" horiz-adv-x="476" 
d="M462 0h-444v17l431 521h-416v12h420v-23l-426 -515h435v-12z" />
    <glyph glyph-name="braceleft" unicode="{" horiz-adv-x="395" 
d="M330 -110h-94q-68 0 -91.5 33.5t-23.5 92.5v292q0 28 -15.5 37t-65.5 9v13q50 0 65.5 9t15.5 37v198q0 59 23.5 92.5t91.5 33.5h94v-13h-93q-58 0 -80 -30.5t-22 -85.5v-187q0 -31 -11 -46t-42 -15q32 0 42.5 -14.5t10.5 -45.5v-281q0 -55 22 -85.5t80 -30.5h93v-13z" />
    <glyph glyph-name="bar" unicode="|" horiz-adv-x="418" 
d="M216 -200h-16v938h16v-938z" />
    <glyph glyph-name="braceright" unicode="}" horiz-adv-x="395" 
d="M66 -110v13h93q58 0 80 30.5t22 85.5v281q0 31 10.5 45.5t42.5 14.5q-31 0 -42 15t-11 46v187q0 55 -22 85.5t-80 30.5h-93v13h94q68 0 91.5 -33.5t23.5 -92.5v-198q0 -28 15.5 -37t65.5 -9v-13q-50 0 -65.5 -9t-15.5 -37v-292q0 -59 -23.5 -92.5t-91.5 -33.5h-94z" />
    <glyph glyph-name="asciitilde" unicode="~" horiz-adv-x="636" 
d="M594 351q0 -58 -34 -95.5t-90 -37.5q-33 0 -57.5 9t-43.5 28.5t-29 35t-26 44.5q-16 30 -25.5 45t-28 35t-41.5 29t-53 9q-45 0 -76.5 -33t-31.5 -88q0 -51 31 -113h-12q-33 68 -33 115q0 55 35 94t89 39q23 0 42 -4t34.5 -15.5t25 -18.5t22.5 -27.5t17 -27t17 -31.5
q15 -27 25 -42.5t27.5 -33.5t40.5 -26.5t53 -8.5q46 0 77 34t31 87q0 51 -31 113h12q33 -68 33 -115z" />
    <glyph glyph-name="exclamdown" unicode="&#xa1;" horiz-adv-x="320" 
d="M186 665h-52v72h52v-72zM169 0h-18l2 590h14z" />
    <glyph glyph-name="cent" unicode="&#xa2;" horiz-adv-x="581" 
d="M467 21q-53 -21 -111 -21v-70h-13v70q-114 0 -187.5 79.5t-73.5 221.5v24q0 124 73 198.5t187 76.5v78h13v-79q81 -6 111 -21v-13q-56 22 -127 22q-103 0 -173.5 -74t-70.5 -188v-25q0 -135 73 -213t179 -78q14 0 27.5 1t21.5 2t20.5 4.5t16 4.5t18 6t16.5 6v-12z" />
    <glyph glyph-name="sterling" unicode="&#xa3;" horiz-adv-x="492" 
d="M441 0h-348v365h-77v13h77v120q0 108 60.5 178.5t149.5 70.5q73 0 111 -24v-13q-48 23 -113 23q-78 0 -135.5 -62.5t-57.5 -185.5v-107h139v-13h-139v-352h333v-13z" />
    <glyph glyph-name="currency" unicode="&#xa4;" horiz-adv-x="484" 
d="M436 16q-46 -27 -126 -27q-102 0 -159 82t-57 249h-67v12h67v72h-67v12h67q0 167 57 249t159 82q79 0 131 -31v-15q-22 14 -60.5 23.5t-71.5 9.5q-92 0 -146.5 -81.5t-54.5 -236.5h338v-12h-338v-72h338v-12h-338q0 -155 54.5 -236.5t146.5 -81.5q80 0 127 29v-15z" />
    <glyph glyph-name="yen" unicode="&#xa5;" horiz-adv-x="540" 
d="M536 737l-272 -399v-58h158v-12h-158v-90h158v-12h-158v-166h-16v166h-158v12h158v90h-158v12h158v57l-250 400h16l242 -389l264 389h16z" />
    <glyph glyph-name="brokenbar" unicode="&#xa6;" horiz-adv-x="415" 
d="M216 367h-14v430h14v-430zM216 -197h-14v428h14v-428z" />
    <glyph glyph-name="section" unicode="&#xa7;" horiz-adv-x="370" 
d="M311 343q0 -65 -58 -89q47 -26 67 -57.5t20 -80.5q0 -69 -47 -101.5t-112 -32.5q-75 0 -137 28v14q20 -12 62 -21.5t76 -9.5q64 0 105 32t41 89q0 56 -27.5 88t-100.5 65q-82 38 -113.5 71t-31.5 72q0 61 50 93q-62 41 -62 117q0 66 44.5 96.5t116.5 30.5q60 0 117 -27
v-13q-19 11 -58.5 19.5t-71.5 8.5q-60 0 -97.5 -29.5t-37.5 -83.5q0 -49 26.5 -80.5t92.5 -62.5q79 -36 107.5 -67t28.5 -69zM298 340q0 37 -28 65.5t-101 62.5q-40 19 -55 29q-47 -27 -47 -84q0 -39 30.5 -69.5t108.5 -65.5q8 -4 21 -11t16 -8q55 24 55 81z" />
    <glyph glyph-name="dieresis" unicode="&#xa8;" 
d="M367 649q0 -14 -15 -14t-15 14t15 14t15 -14zM163 649q0 -14 -15 -14t-15 14t15 14t15 -14z" />
    <glyph glyph-name="copyright" unicode="&#xa9;" horiz-adv-x="738" 
d="M693 338q0 -147 -89 -236t-235 -89q-151 0 -237.5 85t-86.5 240q0 139 92 232t232 93q146 0 235 -90t89 -235zM682 338q0 134 -88.5 223.5t-224.5 89.5q-130 0 -220.5 -91.5t-90.5 -221.5q0 -148 85 -230.5t226 -82.5q142 0 227.5 89t85.5 224zM464 163q-34 -20 -92 -20
q-64 0 -108 46t-44 127v27q0 80 44 126t108 46q58 0 92 -20v-13q-40 21 -91 21q-61 0 -101.5 -46t-40.5 -119v-18q0 -73 40.5 -119.5t101.5 -46.5q49 0 91 22v-13z" />
    <glyph glyph-name="ordfeminine" unicode="&#xaa;" horiz-adv-x="377" 
d="M345 283h-10l-1 93q-8 -40 -51 -69.5t-90 -29.5q-151 0 -151 158v11q0 73 45 115t106 42q53 0 90.5 -28t49.5 -63v102q0 53 -32 87.5t-98 34.5q-26 0 -62 -9.5t-53 -17.5v12q55 26 117 26q70 0 105 -37.5t35 -90.5v-336zM344 205v-12h-293v12h293zM333 423v45
q0 50 -43.5 87t-96.5 37q-58 0 -98.5 -42t-40.5 -105v-10q0 -78 38.5 -112.5t100.5 -34.5q53 0 96.5 38t43.5 97z" />
    <glyph glyph-name="guillemotleft" unicode="&#xab;" horiz-adv-x="521" 
d="M481 130l-254 159v20l254 163v-16l-247 -157l247 -153v-16zM281 130l-254 159v20l254 163v-16l-247 -157l247 -153v-16z" />
    <glyph glyph-name="logicalnot" unicode="&#xac;" horiz-adv-x="543" 
d="M461 229v131h-409v13h424v-144h-15z" />
    <glyph glyph-name="registered" unicode="&#xae;" horiz-adv-x="738" 
d="M693 338q0 -147 -89 -236t-235 -89q-151 0 -237.5 85t-86.5 240q0 139 92 232t232 93q146 0 235 -90t89 -235zM682 338q0 134 -88.5 223.5t-224.5 89.5q-130 0 -220.5 -91.5t-90.5 -221.5q0 -148 85 -230.5t226 -82.5q142 0 227.5 89t85.5 224zM496 167h-11v21
q0 59 -32 95t-85 36h-87v-152h-12v347h104q52 0 78.5 -23t26.5 -59v-30q0 -29 -22 -51t-57 -26q45 -7 71 -43.5t26 -88.5v-26zM466 411v13q0 78 -96 78h-89v-172h89q46 0 71 21.5t25 59.5z" />
    <glyph glyph-name="macron" unicode="&#xaf;" 
d="M413 667h-327v11h327v-11z" />
    <glyph glyph-name="macron" unicode="&#x2c9;" 
d="M413 667h-327v11h327v-11z" />
    <glyph glyph-name="degree" unicode="&#xb0;" horiz-adv-x="338" 
d="M325 597q0 -61 -44.5 -106t-106.5 -45t-106.5 44.5t-44.5 106.5t44.5 106.5t106.5 44.5t106.5 -44.5t44.5 -106.5zM311 597q0 58 -39.5 98t-97.5 40t-97.5 -40t-39.5 -98q0 -57 39.5 -97.5t97.5 -40.5t97.5 40.5t39.5 97.5z" />
    <glyph glyph-name="plusminus" unicode="&#xb1;" horiz-adv-x="341" 
d="M311 351h-138v-153h-12v153h-137v13h137v155h12v-155h138v-13zM316 0h-292v13h292v-13z" />
    <glyph glyph-name="twosuperior" unicode="&#xb2;" horiz-adv-x="368" 
d="M354 288h-312v20q159 137 215.5 206t56.5 119q0 43 -33.5 71t-89.5 28q-42 0 -75.5 -16t-44.5 -42h-15q15 35 51.5 53.5t86.5 18.5q62 0 98.5 -31t36.5 -79q0 -55 -52.5 -120.5t-224.5 -214.5h302v-13z" />
    <glyph glyph-name="threesuperior" unicode="&#xb3;" horiz-adv-x="362" 
d="M311 404q0 -61 -40.5 -93.5t-90.5 -32.5q-40 0 -75 19t-52 53l10 8q17 -32 48.5 -49.5t66.5 -17.5q51 0 85.5 30.5t34.5 87.5q0 48 -39.5 79t-99.5 31h-29v12h34q129 0 129 105q0 44 -31.5 70t-77.5 26q-43 0 -72 -20.5t-38 -56.5h-12q11 46 45 68.5t77 22.5q50 0 86 -30
t36 -81q0 -55 -32.5 -81t-81.5 -29q48 -3 83.5 -33.5t35.5 -87.5z" />
    <glyph glyph-name="acute" unicode="&#xb4;" 
d="M192 596l142 173h14l-142 -173h-14z" />
    <glyph glyph-name="mu" unicode="&#xb5;" horiz-adv-x="483" 
d="M451 0h-12l-1 126q-18 -42 -45 -70.5t-58 -41t-54.5 -17t-47.5 -4.5q-139 0 -179 112v-272h-15v729h13v-374q0 -54 18.5 -92.5t48 -56.5t57 -25.5t55.5 -7.5q143 0 207 143v413h13v-562z" />
    <glyph glyph-name="mu" unicode="&#x3bc;" horiz-adv-x="483" 
d="M451 0h-12l-1 126q-18 -42 -45 -70.5t-58 -41t-54.5 -17t-47.5 -4.5q-139 0 -179 112v-272h-15v729h13v-374q0 -54 18.5 -92.5t48 -56.5t57 -25.5t55.5 -7.5q143 0 207 143v413h13v-562z" />
    <glyph glyph-name="paragraph" unicode="&#xb6;" horiz-adv-x="452" 
d="M361 0h-12v724h-109v-724h-13v484q-88 0 -136 35.5t-48 81.5v21q0 46 48 80.5t138 34.5h132v-737zM227 497v227q-80 0 -125.5 -29.5t-45.5 -81.5q0 -53 42 -84.5t129 -31.5z" />
    <glyph glyph-name="periodcentered" unicode="&#xb7;" horiz-adv-x="285" 
d="M174 290h-52v87h52v-87z" />
    <glyph glyph-name="periodcentered" unicode="&#x2219;" horiz-adv-x="285" 
d="M174 290h-52v87h52v-87z" />
    <glyph glyph-name="cedilla" unicode="&#xb8;" 
d="M356 -97q0 -40 -29 -64t-77 -24q-28 0 -44 3v12q18 -3 43 -3q42 0 68 20.5t26 55.5q0 32 -23 50.5t-70 18.5h-14v40h13v-28q50 0 78.5 -21t28.5 -60z" />
    <glyph glyph-name="onesuperior" unicode="&#xb9;" horiz-adv-x="350" 
d="M199 288h-14v405h-79v9q39 0 59.5 7.5t24.5 28.5h9v-450z" />
    <glyph glyph-name="ordmasculine" unicode="&#xba;" horiz-adv-x="377" 
d="M358 495q0 -108 -38.5 -165.5t-127.5 -57.5q-81 0 -124 58t-43 165v30q0 110 44.5 166.5t121.5 56.5q88 0 127.5 -54t39.5 -169v-30zM338 205v-12h-292v12h292zM346 505v10q0 117 -36 169.5t-119 52.5q-72 0 -113 -54.5t-41 -167.5v-10q0 -108 40 -165t115 -57
q84 0 119 56t35 166z" />
    <glyph glyph-name="guillemotright" unicode="&#xbb;" horiz-adv-x="521" 
d="M241 130v16l247 153l-247 157v16l254 -163v-20zM41 130v16l247 153l-247 157v16l254 -163v-20z" />
    <glyph glyph-name="onequarter" unicode="&#xbc;" horiz-adv-x="622" 
d="M113 288h-14v405h-79v9q39 0 59.5 7.5t24.5 28.5h9v-450zM537 737l-470 -737h-14l470 737h14zM612 166h-44v-166h-10v166h-251v11l252 287h9v-285h44v-13zM558 179v268l-235 -268h235z" />
    <glyph glyph-name="onehalf" unicode="&#xbd;" horiz-adv-x="682" 
d="M113 288h-14v405h-79v9q39 0 59.5 7.5t24.5 28.5h9v-450zM537 737l-470 -737h-14l470 737h14zM681 0h-312v20q159 137 215.5 206t56.5 119q0 43 -33.5 71t-89.5 28q-42 0 -75.5 -16t-44.5 -42h-15q15 35 51.5 53.5t86.5 18.5q62 0 98.5 -31t36.5 -79q0 -55 -52.5 -120.5
t-224.5 -214.5h302v-13z" />
    <glyph glyph-name="threequarters" unicode="&#xbe;" horiz-adv-x="703" 
d="M282 404q0 -61 -40.5 -93.5t-90.5 -32.5q-40 0 -75 19t-52 53l10 8q17 -32 48.5 -49.5t66.5 -17.5q51 0 85.5 30.5t34.5 87.5q0 48 -39.5 79t-99.5 31h-29v12h34q129 0 129 105q0 44 -31.5 70t-77.5 26q-43 0 -72 -20.5t-38 -56.5h-12q11 46 45 68.5t77 22.5q50 0 86 -30
t36 -81q0 -55 -32.5 -81t-81.5 -29q48 -3 83.5 -33.5t35.5 -87.5zM611 737l-470 -737h-14l470 737h14zM686 166h-44v-166h-10v166h-251v11l252 287h9v-285h44v-13zM632 179v268l-235 -268h235z" />
    <glyph glyph-name="questiondown" unicode="&#xbf;" horiz-adv-x="448" 
d="M260 737h52v-72h-52v72zM35 131q0 59 30 94.5t89 59.5q65 26 95 72t30 127v81h14v-87q0 -86 -35.5 -132.5t-100.5 -73.5q-57 -24 -83 -54.5t-26 -86.5q0 -53 40 -91t130 -38q22 0 42 2t37.5 6t29.5 7.5t26.5 10.5t20.5 10t19.5 11t15.5 9v-14q-95 -53 -191 -53
q-99 0 -141 41.5t-42 98.5z" />
    <glyph glyph-name="Agrave" unicode="&#xc0;" horiz-adv-x="539" 
d="M538 0h-14l-80 231h-351l-76 -231h-16l250 737h31zM441 243l-175 491l-169 -491h344zM297 776h-14l-142 173h14z" />
    <glyph glyph-name="Aacute" unicode="&#xc1;" horiz-adv-x="539" 
d="M538 0h-14l-80 231h-351l-76 -231h-16l250 737h31zM441 243l-175 491l-169 -491h344zM235 776l142 173h14l-142 -173h-14z" />
    <glyph glyph-name="Acircumflex" unicode="&#xc2;" horiz-adv-x="539" 
d="M538 0h-14l-80 231h-351l-76 -231h-16l250 737h31zM441 243l-175 491l-169 -491h344zM498 778h-16l-213 166l-213 -166h-16l219 173h20z" />
    <glyph glyph-name="Atilde" unicode="&#xc3;" horiz-adv-x="539" 
d="M538 0h-14l-80 231h-351l-76 -231h-16l250 737h31zM441 243l-175 491l-169 -491h344zM444 857q-32 -54 -87 -54q-40 0 -92 23q-58 25 -84 25q-25 0 -46.5 -12.5t-29.5 -35.5l-12 5q10 26 34.5 40t54.5 14q29 0 89 -26q50 -22 85 -22q54 0 76 48z" />
    <glyph glyph-name="Adieresis" unicode="&#xc4;" horiz-adv-x="539" 
d="M538 0h-14l-80 231h-351l-76 -231h-16l250 737h31zM441 243l-175 491l-169 -491h344zM386 829q0 -14 -15 -14t-15 14t15 14t15 -14zM182 829q0 -14 -15 -14t-15 14t15 14t15 -14z" />
    <glyph glyph-name="Aring" unicode="&#xc5;" horiz-adv-x="539" 
d="M251 736q-45 5 -74 36t-29 75q0 49 33.5 81.5t84.5 32.5t84.5 -32.5t33.5 -81.5q0 -44 -28.5 -75t-73.5 -36l256 -736h-14l-80 231h-351l-76 -231h-16zM374 847q0 43 -32 73.5t-76 30.5q-45 0 -76.5 -30.5t-31.5 -73.5t32 -73t76 -30q43 0 75.5 30t32.5 73zM441 243
l-175 491l-169 -491h344z" />
    <glyph glyph-name="AE" unicode="&#xc6;" horiz-adv-x="688" 
d="M697 0h-377v231h-226l-107 -231h-14l338 737h368v-13h-346v-344h302v-13h-302v-354h364v-13zM320 242v483l-221 -483h221z" />
    <glyph glyph-name="Ccedilla" unicode="&#xc7;" horiz-adv-x="535" 
d="M334 -12q-133 2 -207.5 93t-74.5 269v30q0 174 72 270.5t214 96.5q89 0 171 -26v-16q-19 9 -71.5 18.5t-101.5 9.5q-131 0 -200 -93.5t-69 -269.5v-10q0 -98 22.5 -170t62 -112t86.5 -59t102 -19q101 0 173 31v-15q-76 -27 -166 -28v-20q50 0 78.5 -21t28.5 -60
q0 -40 -29 -64t-77 -24q-28 0 -44 3v12q18 -3 43 -3q42 0 68 20.5t26 55.5q0 32 -23 50.5t-70 18.5h-14v32z" />
    <glyph glyph-name="Egrave" unicode="&#xc8;" horiz-adv-x="531" 
d="M514 0h-416v737h411v-13h-397v-344h328v-13h-328v-354h402v-13zM325 776h-14l-142 173h14z" />
    <glyph glyph-name="Eacute" unicode="&#xc9;" horiz-adv-x="531" 
d="M514 0h-416v737h411v-13h-397v-344h328v-13h-328v-354h402v-13zM228 776l142 173h14l-142 -173h-14z" />
    <glyph glyph-name="Ecircumflex" unicode="&#xca;" horiz-adv-x="531" 
d="M514 0h-416v737h411v-13h-397v-344h328v-13h-328v-354h402v-13zM522 778h-16l-213 166l-213 -166h-16l219 173h20z" />
    <glyph glyph-name="Edieresis" unicode="&#xcb;" horiz-adv-x="531" 
d="M514 0h-416v737h411v-13h-397v-344h328v-13h-328v-354h402v-13zM406 829q0 -14 -15 -14t-15 14t15 14t15 -14zM202 829q0 -14 -15 -14t-15 14t15 14t15 -14z" />
    <glyph glyph-name="Igrave" unicode="&#xcc;" horiz-adv-x="209" 
d="M112 0h-14v737h14v-737zM114 776h-14l-142 173h14z" />
    <glyph glyph-name="Iacute" unicode="&#xcd;" horiz-adv-x="209" 
d="M112 0h-14v737h14v-737zM97 776l142 173h14l-142 -173h-14z" />
    <glyph glyph-name="Icircumflex" unicode="&#xce;" horiz-adv-x="209" 
d="M112 0h-14v737h14v-737zM333 778h-16l-213 166l-213 -166h-16l219 173h20z" />
    <glyph glyph-name="Idieresis" unicode="&#xcf;" horiz-adv-x="209" 
d="M112 0h-14v737h14v-737zM221 829q0 -14 -15 -14t-15 14t15 14t15 -14zM17 829q0 -14 -15 -14t-15 14t15 14t15 -14z" />
    <glyph glyph-name="Eth" unicode="&#xd0;" horiz-adv-x="646" 
d="M98 366h-69v14h69v357h214q131 0 208 -87t77 -267v-30q0 -178 -67.5 -265.5t-214.5 -87.5h-217v366zM112 380h143v-14h-143v-353h192q149 0 213.5 81.5t64.5 263.5v20q0 173 -70.5 259.5t-224.5 86.5h-175v-344z" />
    <glyph glyph-name="Ntilde" unicode="&#xd1;" horiz-adv-x="664" 
d="M566 0h-21l-433 731v-731h-14v737h26l428 -725v725h14v-737zM513 857q-32 -54 -87 -54q-40 0 -92 23q-58 25 -84 25q-25 0 -46.5 -12.5t-29.5 -35.5l-12 5q10 26 34.5 40t54.5 14q29 0 89 -26q49 -22 85 -22q54 0 76 48z" />
    <glyph glyph-name="Ograve" unicode="&#xd2;" horiz-adv-x="677" 
d="M620 345q0 -171 -71.5 -264t-212.5 -93q-130 0 -207 90.5t-77 264.5v42q0 179 77 270.5t207 91.5q138 0 211 -93t73 -269v-40zM606 355v20q0 359 -270 359q-127 0 -198.5 -90.5t-71.5 -268.5v-18q0 -170 70.5 -262.5t199.5 -92.5q131 0 200.5 87.5t69.5 265.5zM398 776
h-14l-142 173h14z" />
    <glyph glyph-name="Oacute" unicode="&#xd3;" horiz-adv-x="677" 
d="M620 345q0 -171 -71.5 -264t-212.5 -93q-130 0 -207 90.5t-77 264.5v42q0 179 77 270.5t207 91.5q138 0 211 -93t73 -269v-40zM606 355v20q0 359 -270 359q-127 0 -198.5 -90.5t-71.5 -268.5v-18q0 -170 70.5 -262.5t199.5 -92.5q131 0 200.5 87.5t69.5 265.5zM280 776
l142 173h14l-142 -173h-14z" />
    <glyph glyph-name="Ocircumflex" unicode="&#xd4;" horiz-adv-x="677" 
d="M620 345q0 -171 -71.5 -264t-212.5 -93q-130 0 -207 90.5t-77 264.5v42q0 179 77 270.5t207 91.5q138 0 211 -93t73 -269v-40zM606 355v20q0 359 -270 359q-127 0 -198.5 -90.5t-71.5 -268.5v-18q0 -170 70.5 -262.5t199.5 -92.5q131 0 200.5 87.5t69.5 265.5zM567 778
h-16l-213 166l-213 -166h-16l219 173h20z" />
    <glyph glyph-name="Otilde" unicode="&#xd5;" horiz-adv-x="677" 
d="M620 345q0 -171 -71.5 -264t-212.5 -93q-130 0 -207 90.5t-77 264.5v42q0 179 77 270.5t207 91.5q138 0 211 -93t73 -269v-40zM606 355v20q0 359 -270 359q-127 0 -198.5 -90.5t-71.5 -268.5v-18q0 -170 70.5 -262.5t199.5 -92.5q131 0 200.5 87.5t69.5 265.5zM513 857
q-32 -54 -87 -54q-40 0 -92 23q-58 25 -84 25q-25 0 -46.5 -12.5t-29.5 -35.5l-12 5q10 26 34.5 40t54.5 14q29 0 89 -26q49 -22 85 -22q54 0 76 48z" />
    <glyph glyph-name="Odieresis" unicode="&#xd6;" horiz-adv-x="677" 
d="M620 345q0 -171 -71.5 -264t-212.5 -93q-130 0 -207 90.5t-77 264.5v42q0 179 77 270.5t207 91.5q138 0 211 -93t73 -269v-40zM606 355v20q0 359 -270 359q-127 0 -198.5 -90.5t-71.5 -268.5v-18q0 -170 70.5 -262.5t199.5 -92.5q131 0 200.5 87.5t69.5 265.5zM455 829
q0 -14 -15 -14t-15 14t15 14t15 -14zM251 829q0 -14 -15 -14t-15 14t15 14t15 -14z" />
    <glyph glyph-name="multiply" unicode="&#xd7;" horiz-adv-x="518" 
d="M405 201l-10 -10l-136 136l-136 -136l-10 10l136 136l-136 136l10 10l136 -136l136 136l10 -10l-136 -136z" />
    <glyph glyph-name="Oslash" unicode="&#xd8;" horiz-adv-x="677" 
d="M620 345q0 -171 -71.5 -264t-212.5 -93q-82 0 -144 36l-37 -80l-12 6l38 81q-129 87 -129 312v42q0 179 77 270.5t207 91.5q90 0 154 -41l27 58l12 -5l-28 -61q119 -87 119 -313v-40zM485 694q-59 40 -149 40q-127 0 -198.5 -90.5t-71.5 -268.5v-18q0 -225 121 -312z
M606 355v20q0 228 -110 312l-298 -649q61 -36 138 -36q131 0 200.5 87.5t69.5 265.5z" />
    <glyph glyph-name="Ugrave" unicode="&#xd9;" horiz-adv-x="680" 
d="M592 237q0 -252 -251 -252q-107 0 -180 62t-73 190v500h14v-518q0 -101 66.5 -161.5t172.5 -60.5q119 0 178 59.5t59 170.5v510h14v-500zM400 776h-14l-142 173h14z" />
    <glyph glyph-name="Uacute" unicode="&#xda;" horiz-adv-x="680" 
d="M592 237q0 -252 -251 -252q-107 0 -180 62t-73 190v500h14v-518q0 -101 66.5 -161.5t172.5 -60.5q119 0 178 59.5t59 170.5v510h14v-500zM282 776l142 173h14l-142 -173h-14z" />
    <glyph glyph-name="Ucircumflex" unicode="&#xdb;" horiz-adv-x="680" 
d="M592 237q0 -252 -251 -252q-107 0 -180 62t-73 190v500h14v-518q0 -101 66.5 -161.5t172.5 -60.5q119 0 178 59.5t59 170.5v510h14v-500zM569 778h-16l-213 166l-213 -166h-16l219 173h20z" />
    <glyph glyph-name="Udieresis" unicode="&#xdc;" horiz-adv-x="680" 
d="M592 237q0 -252 -251 -252q-107 0 -180 62t-73 190v500h14v-518q0 -101 66.5 -161.5t172.5 -60.5q119 0 178 59.5t59 170.5v510h14v-500zM457 829q0 -14 -15 -14t-15 14t15 14t15 -14zM253 829q0 -14 -15 -14t-15 14t15 14t15 -14z" />
    <glyph glyph-name="Yacute" unicode="&#xdd;" horiz-adv-x="610" 
d="M606 737l-294 -511v-226h-14v226l-294 511h14l287 -497l287 497h14zM274 776l142 173h14l-142 -173h-14z" />
    <glyph glyph-name="Thorn" unicode="&#xde;" horiz-adv-x="574" 
d="M536 378q0 -96 -55 -144.5t-158 -48.5h-211v-185h-14v737h14v-150h217q207 0 207 -183v-26zM522 380v19q0 83 -46.5 129t-140.5 46h-223v-376h223q88 0 137.5 47t49.5 135z" />
    <glyph glyph-name="germandbls" unicode="&#xdf;" horiz-adv-x="587" 
d="M556 161q0 -46 -15.5 -79t-40.5 -50t-50.5 -24.5t-53.5 -7.5l-12 1v12q75 0 117 37t42 110q0 119 -112 186q-75 45 -96.5 70.5t-21.5 54.5q0 33 46 67q41 29 41 79q0 52 -36.5 80t-95.5 28q-71 0 -109.5 -56t-38.5 -144v-525h-13v538q0 83 41 141t119 58
q77 0 111.5 -35.5t34.5 -84.5q0 -32 -11 -51t-35 -36q-41 -30 -41 -58q0 -32 20 -51.5t91 -64.5q119 -75 119 -195z" />
    <glyph glyph-name="agrave" unicode="&#xe0;" horiz-adv-x="522" 
d="M460 0h-11l-2 133q-11 -60 -66.5 -100t-137.5 -40q-90 0 -149.5 49.5t-59.5 147.5v6q0 78 54.5 135t153.5 57q73 0 127.5 -34.5t78.5 -100.5v174q0 57 -39 96t-130 39q-49 0 -100 -11.5t-81 -27.5v14q78 37 182 37q94 0 137 -40.5t43 -94.5v-439zM448 188v15
q0 63 -57.5 118t-146.5 55q-87 0 -142.5 -50t-55.5 -122v-19q0 -87 57.5 -134t140.5 -47q93 0 148.5 54t55.5 130zM321 596h-14l-142 173h14z" />
    <glyph glyph-name="aacute" unicode="&#xe1;" horiz-adv-x="522" 
d="M460 0h-11l-2 133q-11 -60 -66.5 -100t-137.5 -40q-90 0 -149.5 49.5t-59.5 147.5v6q0 78 54.5 135t153.5 57q73 0 127.5 -34.5t78.5 -100.5v174q0 57 -39 96t-130 39q-49 0 -100 -11.5t-81 -27.5v14q78 37 182 37q94 0 137 -40.5t43 -94.5v-439zM448 188v15
q0 63 -57.5 118t-146.5 55q-87 0 -142.5 -50t-55.5 -122v-19q0 -87 57.5 -134t140.5 -47q93 0 148.5 54t55.5 130zM203 596l142 173h14l-142 -173h-14z" />
    <glyph glyph-name="acircumflex" unicode="&#xe2;" horiz-adv-x="522" 
d="M460 0h-11l-2 133q-11 -60 -66.5 -100t-137.5 -40q-90 0 -149.5 49.5t-59.5 147.5v6q0 78 54.5 135t153.5 57q73 0 127.5 -34.5t78.5 -100.5v174q0 57 -39 96t-130 39q-49 0 -100 -11.5t-81 -27.5v14q78 37 182 37q94 0 137 -40.5t43 -94.5v-439zM448 188v15
q0 63 -57.5 118t-146.5 55q-87 0 -142.5 -50t-55.5 -122v-19q0 -87 57.5 -134t140.5 -47q93 0 148.5 54t55.5 130zM490 598h-16l-213 166l-213 -166h-16l219 173h20z" />
    <glyph glyph-name="atilde" unicode="&#xe3;" horiz-adv-x="522" 
d="M460 0h-11l-2 133q-11 -60 -66.5 -100t-137.5 -40q-90 0 -149.5 49.5t-59.5 147.5v6q0 78 54.5 135t153.5 57q73 0 127.5 -34.5t78.5 -100.5v174q0 57 -39 96t-130 39q-49 0 -100 -11.5t-81 -27.5v14q78 37 182 37q94 0 137 -40.5t43 -94.5v-439zM448 188v15
q0 63 -57.5 118t-146.5 55q-87 0 -142.5 -50t-55.5 -122v-19q0 -87 57.5 -134t140.5 -47q93 0 148.5 54t55.5 130zM442 677q-32 -54 -87 -54q-40 0 -92 23q-58 25 -84 25q-25 0 -46.5 -12.5t-29.5 -35.5l-12 5q10 26 34.5 40t54.5 14q29 0 89 -26q49 -22 85 -22q54 0 76 48z
" />
    <glyph glyph-name="adieresis" unicode="&#xe4;" horiz-adv-x="522" 
d="M460 0h-11l-2 133q-11 -60 -66.5 -100t-137.5 -40q-90 0 -149.5 49.5t-59.5 147.5v6q0 78 54.5 135t153.5 57q73 0 127.5 -34.5t78.5 -100.5v174q0 57 -39 96t-130 39q-49 0 -100 -11.5t-81 -27.5v14q78 37 182 37q94 0 137 -40.5t43 -94.5v-439zM448 188v15
q0 63 -57.5 118t-146.5 55q-87 0 -142.5 -50t-55.5 -122v-19q0 -87 57.5 -134t140.5 -47q93 0 148.5 54t55.5 130zM393 649q0 -14 -15 -14t-15 14t15 14t15 -14zM189 649q0 -14 -15 -14t-15 14t15 14t15 -14z" />
    <glyph glyph-name="aring" unicode="&#xe5;" horiz-adv-x="522" 
d="M460 0h-11l-2 133q-11 -60 -66.5 -100t-137.5 -40q-90 0 -149.5 49.5t-59.5 147.5v6q0 78 54.5 135t153.5 57q73 0 127.5 -34.5t78.5 -100.5v174q0 57 -39 96t-130 39q-49 0 -100 -11.5t-81 -27.5v14q78 37 182 37q94 0 137 -40.5t43 -94.5v-439zM448 188v15
q0 63 -57.5 118t-146.5 55q-87 0 -142.5 -50t-55.5 -122v-19q0 -87 57.5 -134t140.5 -47q93 0 148.5 54t55.5 130zM400 714q0 -48 -33.5 -80.5t-84.5 -32.5t-84.5 32.5t-33.5 80.5q0 49 33.5 81.5t84.5 32.5t84.5 -32.5t33.5 -81.5zM390 714q0 43 -32.5 73.5t-75.5 30.5
q-44 0 -76 -30.5t-32 -73.5t32 -73t76 -30q43 0 75.5 30t32.5 73z" />
    <glyph glyph-name="ae" unicode="&#xe6;" horiz-adv-x="947" 
d="M914 271h-455q0 -135 61 -202t175 -67q50 0 105.5 12t77.5 29v-12q-53 -41 -198 -41q-84 0 -144 46t-78 135q-14 -89 -71 -133.5t-144 -44.5q-90 0 -149.5 49.5t-59.5 147.5v6q0 78 54.5 135t153.5 57q73 0 127.5 -34t78.5 -101v174q0 57 -39 96t-130 39
q-49 0 -100 -11.5t-81 -27.5v14q78 37 182 37q94 0 137 -40.5t43 -94.5v-48q19 83 82 132.5t147 49.5q104 0 164.5 -69.5t60.5 -194.5v-38zM900 283q1 134 -53.5 204.5t-157.5 70.5q-100 0 -165 -72.5t-65 -202.5h441zM448 188v15q0 63 -58 118t-146 55q-87 0 -142.5 -50
t-55.5 -122v-19q0 -87 57.5 -134t140.5 -47q93 0 148.5 54t55.5 130z" />
    <glyph glyph-name="ccedilla" unicode="&#xe7;" horiz-adv-x="474" 
d="M280 -10q-112 4 -171 68.5t-59 211.5v24q0 143 65.5 211t183.5 68q93 0 147 -25v-15q-67 28 -152 28q-107 0 -169.5 -66t-62.5 -207v-10q0 -81 17 -137t50.5 -85.5t73 -41.5t93.5 -12q40 0 88 10t76 25v-13q-66 -34 -164 -34h-3v-21q50 0 78.5 -21t28.5 -60
q0 -40 -29 -64t-77 -24q-28 0 -44 3v12q18 -3 43 -3q42 0 68 20.5t26 55.5q0 32 -23 50.5t-70 18.5h-14v33z" />
    <glyph glyph-name="egrave" unicode="&#xe8;" horiz-adv-x="550" 
d="M517 271h-455q0 -134 62 -201.5t174 -67.5q69 0 116 13.5t67 27.5v-11q-48 -42 -198 -42q-28 0 -55.5 5.5t-61 23.5t-58 46t-41.5 78.5t-17 115.5v40q0 123 69.5 198.5t172.5 75.5q104 0 164.5 -69.5t60.5 -194.5v-38zM503 283q1 138 -53 207.5t-158 69.5
q-100 0 -165 -73t-65 -204h441zM344 596h-14l-142 173h14z" />
    <glyph glyph-name="eacute" unicode="&#xe9;" horiz-adv-x="550" 
d="M517 271h-455q0 -134 62 -201.5t174 -67.5q69 0 116 13.5t67 27.5v-11q-48 -42 -198 -42q-28 0 -55.5 5.5t-61 23.5t-58 46t-41.5 78.5t-17 115.5v40q0 123 69.5 198.5t172.5 75.5q104 0 164.5 -69.5t60.5 -194.5v-38zM503 283q1 138 -53 207.5t-158 69.5
q-100 0 -165 -73t-65 -204h441zM241 596l142 173h14l-142 -173h-14z" />
    <glyph glyph-name="ecircumflex" unicode="&#xea;" horiz-adv-x="550" 
d="M517 271h-455q0 -134 62 -201.5t174 -67.5q69 0 116 13.5t67 27.5v-11q-48 -42 -198 -42q-28 0 -55.5 5.5t-61 23.5t-58 46t-41.5 78.5t-17 115.5v40q0 123 69.5 198.5t172.5 75.5q104 0 164.5 -69.5t60.5 -194.5v-38zM503 283q1 138 -53 207.5t-158 69.5
q-100 0 -165 -73t-65 -204h441zM514 598h-16l-213 166l-213 -166h-16l219 173h20z" />
    <glyph glyph-name="edieresis" unicode="&#xeb;" horiz-adv-x="550" 
d="M517 271h-455q0 -134 62 -201.5t174 -67.5q69 0 116 13.5t67 27.5v-11q-48 -42 -198 -42q-28 0 -55.5 5.5t-61 23.5t-58 46t-41.5 78.5t-17 115.5v40q0 123 69.5 198.5t172.5 75.5q104 0 164.5 -69.5t60.5 -194.5v-38zM503 283q1 138 -53 207.5t-158 69.5
q-100 0 -165 -73t-65 -204h441zM400 649q0 -14 -15 -14t-15 14t15 14t15 -14zM196 649q0 -14 -15 -14t-15 14t15 14t15 -14z" />
    <glyph glyph-name="igrave" unicode="&#xec;" horiz-adv-x="175" 
d="M96 0h-13v562h13v-562zM96 596h-14l-142 173h14z" />
    <glyph glyph-name="iacute" unicode="&#xed;" horiz-adv-x="175" 
d="M96 0h-13v562h13v-562zM82 596l142 173h14l-142 -173h-14z" />
    <glyph glyph-name="icircumflex" unicode="&#xee;" horiz-adv-x="175" 
d="M96 0h-13v562h13v-562zM316 598h-16l-213 166l-213 -166h-16l219 173h20z" />
    <glyph glyph-name="idieresis" unicode="&#xef;" horiz-adv-x="175" 
d="M96 0h-13v562h13v-562zM204 649q0 -14 -15 -14t-15 14t15 14t15 -14zM0 649q0 -14 -15 -14t-15 14t15 14t15 -14z" />
    <glyph glyph-name="eth" unicode="&#xf0;" horiz-adv-x="586" 
d="M536 266q0 -133 -65.5 -204t-177.5 -71q-244 0 -243 273q2 269 243 269q173 0 227 -159q-16 191 -98 285l-150 -42l-4 12q2 1 6.5 2t16.5 4.5t23.5 6.5t26 7t27 7.5t23 6.5t16.5 5l6 1q-57 62 -135 62q-90 0 -164 -37v15q67 36 164 36q90 0 153 -71l96 27l3 -11l-91 -26
q97 -119 97 -398zM522 259v7q0 113 -59 184.5t-170 71.5q-114 0 -172.5 -69.5t-58.5 -186.5v-7q0 -257 231 -257q98 0 163.5 69t65.5 188z" />
    <glyph glyph-name="ntilde" unicode="&#xf1;" horiz-adv-x="555" 
d="M483 0h-13v433q0 57 -40 92.5t-113 35.5q-84 0 -144.5 -44t-86.5 -117v-400h-13v553h11l1 -133q20 63 81.5 108t149.5 45q81 0 124 -39.5t43 -106.5v-427zM446 677q-32 -54 -87 -54q-40 0 -92 23q-58 25 -84 25q-25 0 -46.5 -12.5t-29.5 -35.5l-12 5q10 26 34.5 40
t54.5 14q29 0 89 -26q49 -22 85 -22q54 0 76 48z" />
    <glyph glyph-name="ograve" unicode="&#xf2;" horiz-adv-x="586" 
d="M536 264q0 -274 -243 -274q-117 0 -180 64t-63 210v36q0 126 60.5 199.5t182.5 73.5q121 0 182 -73t61 -200v-36zM523 278v8q0 129 -56.5 202t-173.5 73t-173.5 -73t-56.5 -202v-8q0 -147 58.5 -211.5t171.5 -64.5q119 0 174.5 67.5t55.5 208.5zM349 596h-14l-142 173h14
z" />
    <glyph glyph-name="oacute" unicode="&#xf3;" horiz-adv-x="586" 
d="M536 264q0 -274 -243 -274q-117 0 -180 64t-63 210v36q0 126 60.5 199.5t182.5 73.5q121 0 182 -73t61 -200v-36zM523 278v8q0 129 -56.5 202t-173.5 73t-173.5 -73t-56.5 -202v-8q0 -147 58.5 -211.5t171.5 -64.5q119 0 174.5 67.5t55.5 208.5zM239 596l142 173h14
l-142 -173h-14z" />
    <glyph glyph-name="ocircumflex" unicode="&#xf4;" horiz-adv-x="586" 
d="M536 264q0 -274 -243 -274q-117 0 -180 64t-63 210v36q0 126 60.5 199.5t182.5 73.5q121 0 182 -73t61 -200v-36zM523 278v8q0 129 -56.5 202t-173.5 73t-173.5 -73t-56.5 -202v-8q0 -147 58.5 -211.5t171.5 -64.5q119 0 174.5 67.5t55.5 208.5zM522 598h-16l-213 166
l-213 -166h-16l219 173h20z" />
    <glyph glyph-name="otilde" unicode="&#xf5;" horiz-adv-x="586" 
d="M536 264q0 -274 -243 -274q-117 0 -180 64t-63 210v36q0 126 60.5 199.5t182.5 73.5q121 0 182 -73t61 -200v-36zM523 278v8q0 129 -56.5 202t-173.5 73t-173.5 -73t-56.5 -202v-8q0 -147 58.5 -211.5t171.5 -64.5q119 0 174.5 67.5t55.5 208.5zM468 677q-32 -54 -87 -54
q-40 0 -92 23q-58 25 -84 25q-25 0 -46.5 -12.5t-29.5 -35.5l-12 5q10 26 34.5 40t54.5 14q29 0 89 -26q49 -22 85 -22q54 0 76 48z" />
    <glyph glyph-name="odieresis" unicode="&#xf6;" horiz-adv-x="586" 
d="M536 264q0 -274 -243 -274q-117 0 -180 64t-63 210v36q0 126 60.5 199.5t182.5 73.5q121 0 182 -73t61 -200v-36zM523 278v8q0 129 -56.5 202t-173.5 73t-173.5 -73t-56.5 -202v-8q0 -147 58.5 -211.5t171.5 -64.5q119 0 174.5 67.5t55.5 208.5zM410 649q0 -14 -15 -14
t-15 14t15 14t15 -14zM206 649q0 -14 -15 -14t-15 14t15 14t15 -14z" />
    <glyph glyph-name="divide" unicode="&#xf7;" horiz-adv-x="450" 
d="M252 463q0 -12 -8.5 -21t-19.5 -9t-19.5 9t-8.5 21q0 11 8.5 19.5t19.5 8.5q10 0 19 -8t9 -20zM389 357h-329v11h329v-11zM252 247q0 -12 -8.5 -20.5t-19.5 -8.5t-19.5 8.5t-8.5 20.5q0 11 8.5 19.5t19.5 8.5t19.5 -8.5t8.5 -19.5z" />
    <glyph glyph-name="oslash" unicode="&#xf8;" horiz-adv-x="586" 
d="M164 16q-114 57 -114 248v36q0 126 60.5 199.5t182.5 73.5q64 0 114 -22l23 50l12 -4l-24 -52q118 -61 118 -245v-36q0 -274 -243 -274q-69 0 -117 21l-22 -48l-12 6zM169 27l233 512q-47 22 -109 22q-116 0 -173.5 -73.5t-57.5 -201.5v-8q0 -196 107 -251zM413 533
l-232 -511q44 -20 112 -20q118 0 173.5 68t55.5 208v8q0 185 -109 247z" />
    <glyph glyph-name="ugrave" unicode="&#xf9;" horiz-adv-x="555" 
d="M480 0h-11l-1 142q-20 -64 -80 -108t-139 -44q-88 0 -133.5 38t-45.5 98v427h13v-421q0 -59 41 -94.5t131 -35.5q71 0 130.5 46t81.5 114v391h13v-553zM337 596h-14l-142 173h14z" />
    <glyph glyph-name="uacute" unicode="&#xfa;" horiz-adv-x="555" 
d="M480 0h-11l-1 142q-20 -64 -80 -108t-139 -44q-88 0 -133.5 38t-45.5 98v427h13v-421q0 -59 41 -94.5t131 -35.5q71 0 130.5 46t81.5 114v391h13v-553zM219 596l142 173h14l-142 -173h-14z" />
    <glyph glyph-name="ucircumflex" unicode="&#xfb;" horiz-adv-x="555" 
d="M480 0h-11l-1 142q-20 -64 -80 -108t-139 -44q-88 0 -133.5 38t-45.5 98v427h13v-421q0 -59 41 -94.5t131 -35.5q71 0 130.5 46t81.5 114v391h13v-553zM506 598h-16l-213 166l-213 -166h-16l219 173h20z" />
    <glyph glyph-name="udieresis" unicode="&#xfc;" horiz-adv-x="555" 
d="M480 0h-11l-1 142q-20 -64 -80 -108t-139 -44q-88 0 -133.5 38t-45.5 98v427h13v-421q0 -59 41 -94.5t131 -35.5q71 0 130.5 46t81.5 114v391h13v-553zM394 649q0 -14 -15 -14t-15 14t15 14t15 -14zM190 649q0 -14 -15 -14t-15 14t15 14t15 -14z" />
    <glyph glyph-name="yacute" unicode="&#xfd;" horiz-adv-x="530" 
d="M527 558l-330 -725h-13l74 162l-255 563h14l248 -551l249 551h13zM222 596l142 173h14l-142 -173h-14z" />
    <glyph glyph-name="thorn" unicode="&#xfe;" horiz-adv-x="560" 
d="M508 268q0 -276 -225 -276q-81 0 -131.5 39t-65.5 86v-284h-13v904h12v-306q24 61 76.5 101.5t128.5 40.5q110 0 164 -69.5t54 -178.5v-57zM494 277v37q0 111 -49.5 179t-155.5 68q-72 0 -123.5 -40.5t-79.5 -107.5v-278q18 -52 70 -91.5t127 -39.5q211 0 211 273z" />
    <glyph glyph-name="ydieresis" unicode="&#xff;" horiz-adv-x="530" 
d="M527 558l-330 -725h-13l74 162l-255 563h14l248 -551l249 551h13zM382 649q0 -14 -15 -14t-15 14t15 14t15 -14zM178 649q0 -14 -15 -14t-15 14t15 14t15 -14z" />
    <glyph glyph-name="dotlessi" unicode="&#x131;" horiz-adv-x="175" 
d="M96 0h-13v562h13v-562z" />
    <glyph glyph-name="Lslash" unicode="&#x141;" horiz-adv-x="506" 
d="M112 300v-287h365v-13h-379v292l-96 -58v16l96 57v430h14v-421l140 85v-15z" />
    <glyph glyph-name="lslash" unicode="&#x142;" horiz-adv-x="166" 
d="M89 288v-288h-12v280l-71 -46v16l71 46v441h12v-433l67 43v-15z" />
    <glyph glyph-name="OE" unicode="&#x152;" horiz-adv-x="866" 
d="M842 0h-376q-46 -12 -130 -12q-130 0 -207 90.5t-77 264.5v42q0 179 77 270.5t207 91.5q85 0 130 -10h371v-13h-357v-344h288v-13h-288v-354h362v-13zM466 14v708q-11 4 -56.5 8t-73.5 4q-127 0 -198.5 -90.5t-71.5 -268.5v-18q0 -170 70.5 -262.5t199.5 -92.5
q98 0 130 12z" />
    <glyph glyph-name="oe" unicode="&#x153;" horiz-adv-x="1020" 
d="M989 271h-454q0 -134 61.5 -201.5t173.5 -67.5q69 0 116 13.5t67 27.5v-12q-46 -41 -198 -41q-94 0 -155.5 57t-71.5 155q-11 -103 -67 -157.5t-168 -54.5q-117 0 -180 64t-63 210v36q0 126 60.5 199.5t182.5 73.5q107 0 165 -57.5t72 -154.5q9 90 77.5 151t156.5 61
q104 0 164.5 -69.5t60.5 -194.5v-38zM975 283q1 134 -53.5 204.5t-157.5 70.5q-100 0 -164.5 -72.5t-64.5 -202.5h440zM521 278v8q0 129 -56 202t-172 73t-173.5 -73.5t-57.5 -201.5v-8q0 -147 57 -211.5t174 -64.5q118 0 173 68t55 208z" />
    <glyph glyph-name="Scaron" unicode="&#x160;" horiz-adv-x="595" 
d="M528 177q0 -83 -64.5 -135t-192.5 -52q-136 0 -217 37v16q91 -40 218 -40q124 0 183 49t59 127q0 68 -42.5 108t-161.5 86q-141 55 -184.5 98.5t-43.5 123.5q0 68 64 110t183 42q66 0 155 -24v-16q-90 27 -156 27q-112 0 -172 -39.5t-60 -101.5q0 -35 7.5 -58.5t31 -49
t67.5 -49t116 -51.5q121 -47 165.5 -90t44.5 -118zM522 951l-219 -173h-20l-219 173h16l213 -166l213 166h16z" />
    <glyph glyph-name="scaron" unicode="&#x161;" horiz-adv-x="422" 
d="M375 142q0 -152 -177 -152q-106 0 -164 31v18q49 -37 162 -37q73 0 119.5 33.5t46.5 106.5q0 35 -13 60.5t-40.5 43.5t-50.5 28t-64 23q-34 11 -56 21t-45 26.5t-34.5 40.5t-11.5 56q0 64 45 98t106 34q86 0 148 -31v-18q-58 36 -152 36q-62 0 -98 -34.5t-36 -83.5
q0 -53 35 -80.5t104 -51.5q86 -30 115 -49q61 -42 61 -119zM427 771l-219 -173h-20l-219 173h16l213 -166l213 166h16z" />
    <glyph glyph-name="Ydieresis" unicode="&#x178;" horiz-adv-x="610" 
d="M606 737l-294 -511v-226h-14v226l-294 511h14l287 -497l287 497h14zM422 829q0 -14 -15 -14t-15 14t15 14t15 -14zM218 829q0 -14 -15 -14t-15 14t15 14t15 -14z" />
    <glyph glyph-name="Zcaron" unicode="&#x17d;" horiz-adv-x="541" 
d="M519 0h-494v18l484 706h-470v13h480v-19l-483 -705h483v-13zM499 951l-219 -173h-20l-219 173h16l213 -166l213 166h16z" />
    <glyph glyph-name="zcaron" unicode="&#x17e;" horiz-adv-x="476" 
d="M462 0h-444v17l431 521h-416v12h420v-23l-426 -515h435v-12zM467 771l-219 -173h-20l-219 173h16l213 -166l213 166h16z" />
    <glyph glyph-name="florin" unicode="&#x192;" horiz-adv-x="330" 
d="M341 729l-5 -14q-28 18 -74 18q-45 0 -71 -27.5t-26 -83.5v-181h134v-13h-134v-489q0 -53 -32 -83t-79 -30q-49 0 -79 18l5 14q28 -18 74 -18q45 0 71 27.5t26 83.5v477h-73v13h73v193q0 53 32 83t79 30q49 0 79 -18z" />
    <glyph glyph-name="circumflex" unicode="&#x2c6;" 
d="M479 598h-16l-213 166l-213 -166h-16l219 173h20z" />
    <glyph glyph-name="caron" unicode="&#x2c7;" 
d="M479 771l-219 -173h-20l-219 173h16l213 -166l213 166h16z" />
    <glyph glyph-name="breve" unicode="&#x2d8;" 
d="M407 748q0 -59 -43 -95t-114 -36t-114 37.5t-43 93.5h12q0 -49 40.5 -85t104.5 -36q67 0 105.5 34t38.5 87h13z" />
    <glyph glyph-name="dotaccent" unicode="&#x2d9;" 
d="M274 646q0 -9 -6.5 -15.5t-15.5 -6.5t-15.5 6.5t-6.5 15.5t6.5 15.5t15.5 6.5t15.5 -6.5t6.5 -15.5z" />
    <glyph glyph-name="ring" unicode="&#x2da;" 
d="M368 690q0 -48 -33.5 -80.5t-84.5 -32.5t-84.5 32.5t-33.5 80.5q0 49 33.5 81.5t84.5 32.5t84.5 -32.5t33.5 -81.5zM358 690q0 43 -32.5 73.5t-75.5 30.5q-44 0 -76 -30.5t-32 -73.5t32 -73t76 -30q43 0 75.5 30t32.5 73z" />
    <glyph glyph-name="ogonek" unicode="&#x2db;" 
d="M326 -231q-25 -9 -49 -9q-57 0 -89 31.5t-32 88.5q0 56 35.5 88t98.5 32h22v-12h-26q-55 0 -87 -26t-32 -82t32 -84t78 -28q23 0 45 10z" />
    <glyph glyph-name="tilde" unicode="&#x2dc;" 
d="M425 677q-32 -54 -87 -54q-40 0 -92 23q-58 25 -84 25q-25 0 -46.5 -12.5t-29.5 -35.5l-12 5q10 26 34.5 40t54.5 14q29 0 89 -26q50 -22 85 -22q54 0 76 48z" />
    <glyph glyph-name="hungarumlaut" unicode="&#x2dd;" 
d="M435 769l-110 -173h-13l110 173h13zM243 769l-110 -173h-13l110 173h13z" />
    <glyph glyph-name="Delta" unicode="&#x394;" horiz-adv-x="570" 
d="M567 0h-568l281 737h14zM547 13l-261 704l-266 -704h527z" />
    <glyph glyph-name="Delta" unicode="&#x2206;" horiz-adv-x="570" 
d="M567 0h-568l281 737h14zM547 13l-261 704l-266 -704h527z" />
    <glyph glyph-name="Omega" unicode="&#x3a9;" horiz-adv-x="688" 
d="M631 406q0 -89 -56 -166t-120 -103v-124h170v-13h-183v144q68 30 122.5 105t54.5 176v20q0 291 -275 291t-275 -291v-20q0 -101 52.5 -177t124.5 -104v-144h-183v13h170v124q-69 24 -122.5 101.5t-53.5 176.5v47q0 126 70 205.5t217 79.5q141 0 214 -76.5t73 -208.5v-56z
" />
    <glyph glyph-name="Omega" unicode="&#x2126;" horiz-adv-x="688" 
d="M631 406q0 -89 -56 -166t-120 -103v-124h170v-13h-183v144q68 30 122.5 105t54.5 176v20q0 291 -275 291t-275 -291v-20q0 -101 52.5 -177t124.5 -104v-144h-183v13h170v124q-69 24 -122.5 101.5t-53.5 176.5v47q0 126 70 205.5t217 79.5q141 0 214 -76.5t73 -208.5v-56z
" />
    <glyph glyph-name="pi" unicode="&#x3c0;" horiz-adv-x="540" 
d="M500 539h-100v-539h-13v539h-236v-539h-13v539h-100v12h462v-12z" />
    <glyph glyph-name="uni0401" unicode="&#x401;" horiz-adv-x="531" 
d="M514 0h-416v737h411v-13h-397v-344h328v-13h-328v-354h402v-13zM406 829q0 -14 -15 -14t-15 14t15 14t15 -14zM202 829q0 -14 -15 -14t-15 14t15 14t15 -14z" />
    <glyph glyph-name="uni0402" unicode="&#x402;" horiz-adv-x="741" 
d="M495 13l-6 -13q207 0 207 183v26q0 96 -55 144.5t-158 48.5h-211v322h293v13h-560v-13h253v-724h14v389h223q89 0 138 -46.5t49 -135.5v-19q0 -83 -46 -129t-141 -46z" />
    <glyph glyph-name="uni0403" unicode="&#x403;" horiz-adv-x="511" 
d="M482 737h-384v-737h14v724h370v13zM218 776l142 173h14l-142 -173h-14z" />
    <glyph glyph-name="uni0404" unicode="&#x404;" horiz-adv-x="535" 
d="M513 16q-76 -28 -174 -28q-287 0 -287 362v30q0 182 68.5 274.5t217.5 92.5q89 0 171 -26v-16q-19 9 -71.5 18.5t-101.5 9.5q-138 0 -203.5 -89t-65.5 -272h320v-13h-320q0 -359 273 -359q101 0 173 31v-15z" />
    <glyph glyph-name="uni0405" unicode="&#x405;" horiz-adv-x="595" 
d="M528 177q0 -83 -64.5 -135t-192.5 -52q-136 0 -217 37v16q91 -40 218 -40q124 0 183 49t59 127q0 68 -42.5 108t-161.5 86q-141 55 -184.5 98.5t-43.5 123.5q0 68 64 110t183 42q66 0 155 -24v-16q-90 27 -156 27q-112 0 -172 -39.5t-60 -101.5q0 -35 7.5 -58.5t31 -49
t67.5 -49t116 -51.5q121 -47 165.5 -90t44.5 -118z" />
    <glyph glyph-name="uni0406" unicode="&#x406;" horiz-adv-x="209" 
d="M112 0h-14v737h14v-737z" />
    <glyph glyph-name="uni0407" unicode="&#x407;" horiz-adv-x="209" 
d="M112 0h-14v737h14v-737zM221 829q0 -14 -15 -14t-15 14t15 14t15 -14zM17 829q0 -14 -15 -14t-15 14t15 14t15 -14z" />
    <glyph glyph-name="uni0408" unicode="&#x408;" horiz-adv-x="452" 
d="M348 200q0 -116 -37.5 -161.5t-115.5 -45.5q-97 0 -148 23v12q56 -23 148 -23q70 0 104.5 42t34.5 148v542h14v-537z" />
    <glyph glyph-name="uni0409" unicode="&#x409;" horiz-adv-x="1088" 
d="M605 0v724h-329q-5 -74 -12 -187.5t-9 -148.5q-15 -228 -44.5 -308t-114.5 -80q-44 0 -86 22v16q45 -24 86 -24q74 0 102 78t43 297q4 51 10.5 168.5t10.5 179.5h357v-335h217q99 0 153 -49.5t54 -148.5q0 -103 -49.5 -153.5t-157.5 -50.5h-231zM619 13h223
q187 0 187 190q0 92 -49 139t-138 47h-223v-376z" />
    <glyph glyph-name="uni040A" unicode="&#x40a;" horiz-adv-x="1023" 
d="M540 0v367h-428v-367h-14v737h14v-357h428v357h14v-335h217q99 0 153 -49.5t54 -148.5q0 -103 -49.5 -153.5t-157.5 -50.5h-231zM554 13h223q187 0 187 190q0 92 -49 139t-138 47h-223v-376z" />
    <glyph glyph-name="uni040B" unicode="&#x40b;" horiz-adv-x="768" 
d="M696 0h-14v207q0 89 -49 135.5t-138 46.5h-223v-389h-14v724h-253v13h560v-13h-293v-322h211q103 0 158 -48.5t55 -144.5v-209z" />
    <glyph glyph-name="uni040C" unicode="&#x40c;" horiz-adv-x="640" 
d="M261 776l142 173h14l-142 -173h-14zM390 375q45 8 71 35.5t42 107t16 219.5h-14q0 -142 -15 -218.5t-47 -107.5t-91 -31h-240v357h-14v-737h14v367h247q59 0 94.5 -30.5t56 -112.5t20.5 -224h14q0 108 -11.5 182.5t-34 114t-48 57t-60.5 21.5z" />
    <glyph glyph-name="uni040E" unicode="&#x40e;" horiz-adv-x="570" 
d="M552 737l-246 -566l-288 566h-14l295 -582l-5 -12q-35 -83 -66.5 -112t-86.5 -29q-44 0 -88 14v-14q41 -13 88 -13q60 0 94 30.5t72 118.5l259 599h-14zM457 898q0 -59 -43 -95t-114 -36t-114 37.5t-43 93.5h12q0 -49 40.5 -85t104.5 -36q67 0 105.5 34t38.5 87h13z" />
    <glyph glyph-name="uni040F" unicode="&#x40f;" horiz-adv-x="646" 
d="M534 13h-422v724h-14v-737h218v-176h14v176h218v737h-14v-724z" />
    <glyph glyph-name="uni0410" unicode="&#x410;" horiz-adv-x="539" 
d="M538 0h-14l-80 231h-351l-76 -231h-16l250 737h31zM441 243l-175 491l-169 -491h344z" />
    <glyph glyph-name="uni0411" unicode="&#x411;" horiz-adv-x="581" 
d="M98 0v737h384v-13h-370v-322h217q99 0 153 -49.5t54 -148.5q0 -103 -49.5 -153.5t-157.5 -50.5h-231zM112 13h223q187 0 187 190q0 92 -49 139t-138 47h-223v-376z" />
    <glyph glyph-name="uni0412" unicode="&#x412;" horiz-adv-x="600" 
d="M565 209q0 -101 -59 -155t-164 -54h-244v737h242q89 0 134 -45.5t45 -126.5q0 -64 -29 -111t-85 -53q76 -8 118 -65t42 -127zM506 565q0 83 -45 121t-120 38h-229v-317h270q50 0 87 40.5t37 117.5zM551 209q0 84 -49 135t-134 51h-256v-382h228q104 0 157.5 50.5
t53.5 145.5z" />
    <glyph glyph-name="uni0413" unicode="&#x413;" horiz-adv-x="511" 
d="M482 737h-384v-737h14v724h370v13z" />
    <glyph glyph-name="uni0414" unicode="&#x414;" horiz-adv-x="651" 
d="M18 13h30q36 4 57.5 32.5t37.5 111t25 235.5q14 262 18 345h357v-724h26v-189h-14v176h-523v-176h-14v189zM182 391q-11 -190 -32 -273t-60 -105h439v711h-329q-4 -86 -18 -333z" />
    <glyph glyph-name="uni0415" unicode="&#x415;" horiz-adv-x="531" 
d="M514 0h-416v737h411v-13h-397v-344h328v-13h-328v-354h402v-13z" />
    <glyph glyph-name="uni0416" unicode="&#x416;" horiz-adv-x="992" 
d="M221 375q-45 8 -71 35.5t-42 107t-16 219.5h14q0 -142 15 -218.5t47 -107.5t91 -31h230v357h14v-357h230q59 0 91 31t47 107.5t15 218.5h14q0 -140 -16 -219.5t-42 -107t-71 -35.5q35 -4 60.5 -21.5t48 -57t34 -114t11.5 -182.5h-14q0 142 -20.5 224t-56 112.5
t-94.5 30.5h-237v-367h-14v367h-237q-59 0 -94.5 -30.5t-56 -112.5t-20.5 -224h-14q0 108 11.5 182.5t34 114t48 57t60.5 21.5z" />
    <glyph glyph-name="uni0417" unicode="&#x417;" horiz-adv-x="479" 
d="M229 734q87 0 130.5 -46t43.5 -115q0 -174 -195 -174h-92v-13h92q228 0 228 -193q0 -92 -49.5 -142.5t-145.5 -50.5q-104 0 -174 30v-14q76 -28 174 -28q102 0 155.5 54t53.5 151q0 93 -51.5 143t-135.5 56q77 10 115 57t38 123t-47 125t-140 49q-91 0 -154 -26v-14
q62 28 154 28z" />
    <glyph glyph-name="uni0418" unicode="&#x418;" horiz-adv-x="664" 
d="M98 0h14v12l440 688v-700h14v737h-14v-12l-440 -689v701h-14v-737z" />
    <glyph glyph-name="uni0419" unicode="&#x419;" horiz-adv-x="664" 
d="M489 898q0 -59 -43 -95t-114 -36t-114 37.5t-43 93.5h12q0 -49 40.5 -85t104.5 -36q67 0 105.5 34t38.5 87h13zM98 0h14v12l440 688v-700h14v737h-14v-12l-440 -689v701h-14v-737z" />
    <glyph glyph-name="uni041A" unicode="&#x41a;" horiz-adv-x="611" 
d="M390 375q45 8 71 35.5t42 107t16 219.5h-14q0 -142 -15 -218.5t-47 -107.5t-91 -31h-240v357h-14v-737h14v367h247q59 0 94.5 -30.5t56 -112.5t20.5 -224h14q0 108 -11.5 182.5t-34 114t-48 57t-60.5 21.5z" />
    <glyph glyph-name="uni041B" unicode="&#x41b;" horiz-adv-x="714" 
d="M616 737h-354q-4 -62 -10.5 -179.5t-10.5 -168.5q-15 -219 -43 -297t-102 -78q-41 0 -86 24v-16q42 -22 86 -22q85 0 114.5 80t44.5 308q2 35 9 148.5t12 187.5h326v-724h14v737z" />
    <glyph glyph-name="uni041C" unicode="&#x41c;" horiz-adv-x="826" 
d="M728 0h-14v726l-283 -726h-26l-293 732v-732h-14v737h26l294 -732l288 732h22v-737z" />
    <glyph glyph-name="uni041D" unicode="&#x41d;" horiz-adv-x="654" 
d="M556 0h-14v367h-430v-367h-14v737h14v-357h430v357h14v-737z" />
    <glyph glyph-name="uni041E" unicode="&#x41e;" horiz-adv-x="677" 
d="M620 345q0 -171 -71.5 -264t-212.5 -93q-130 0 -207 90.5t-77 264.5v42q0 179 77 270.5t207 91.5q138 0 211 -93t73 -269v-40zM606 355v20q0 359 -270 359q-127 0 -198.5 -90.5t-71.5 -268.5v-18q0 -170 70.5 -262.5t199.5 -92.5q131 0 200.5 87.5t69.5 265.5z" />
    <glyph glyph-name="uni041F" unicode="&#x41f;" horiz-adv-x="650" 
d="M538 724h-426v-724h-14v737h454v-737h-14v724z" />
    <glyph glyph-name="uni0420" unicode="&#x420;" horiz-adv-x="574" 
d="M536 528q0 -96 -55 -144.5t-158 -48.5h-211v-335h-14v737h231q207 0 207 -183v-26zM522 530v19q0 83 -46 129t-141 46h-223v-376h223q89 0 138 46.5t49 135.5z" />
    <glyph glyph-name="uni0421" unicode="&#x421;" horiz-adv-x="535" 
d="M513 16q-76 -28 -174 -28q-135 0 -211 91.5t-76 270.5v30q0 174 72 270.5t214 96.5q89 0 171 -26v-16q-19 9 -71.5 18.5t-101.5 9.5q-131 0 -200 -93.5t-69 -269.5v-10q0 -98 22.5 -170t62 -112t86.5 -59t102 -19q101 0 173 31v-15z" />
    <glyph glyph-name="uni0422" unicode="&#x422;" horiz-adv-x="530" 
d="M525 724h-253v-724h-14v724h-253v13h520v-13z" />
    <glyph glyph-name="uni0423" unicode="&#x423;" horiz-adv-x="570" 
d="M550 737l-244 -564l-286 564h-16l294 -582l-5 -12q-35 -83 -66 -111.5t-86 -28.5q-44 0 -88 14v-15q41 -13 88 -13q60 0 94 30.5t72 118.5l259 599h-16z" />
    <glyph glyph-name="uni0424" unicode="&#x424;" horiz-adv-x="677" 
d="M345 0h-14v98q-125 2 -202 70.5t-77 184.5v22q0 127 75.5 193.5t203.5 68.5v110h14v-110q133 -2 204 -69.5t71 -192.5v-20q0 -118 -69.5 -186.5t-205.5 -70.5v-98zM66 357q0 -110 70 -177t195 -68v512q-123 -2 -194 -66t-71 -183v-18zM606 355v20q0 121 -67 184t-194 65
v-512q125 2 193 64t68 179z" />
    <glyph glyph-name="uni0425" unicode="&#x425;" horiz-adv-x="554" 
d="M545 0h-16l-258 368l-246 -368h-16l254 379l-252 358h16l243 -346l231 346h16l-239 -358z" />
    <glyph glyph-name="uni0426" unicode="&#x426;" horiz-adv-x="652" 
d="M112 13h418v724h14v-724h26v-189h-14v176h-458v737h14v-724z" />
    <glyph glyph-name="uni0427" unicode="&#x427;" horiz-adv-x="611" 
d="M513 737h-14v-389h-223q-89 0 -138 46.5t-49 135.5v207h-14v-209q0 -96 55 -144.5t158 -48.5h211v-335h14v737z" />
    <glyph glyph-name="uni0428" unicode="&#x428;" horiz-adv-x="845" 
d="M747 0h-649v737h14v-724h301v724h14v-724h306v724h14v-737z" />
    <glyph glyph-name="uni0429" unicode="&#x429;" horiz-adv-x="855" 
d="M427 13h306v724h14v-724h26v-189h-14v176h-661v737h14v-724h301v724h14v-724z" />
    <glyph glyph-name="uni042A" unicode="&#x42a;" horiz-adv-x="682" 
d="M204 0v724h-199v13h213v-335h212q99 0 153 -49.5t54 -148.5q0 -103 -49.5 -153.5t-157.5 -50.5h-226zM218 13h218q187 0 187 190q0 92 -49 139t-138 47h-218v-376z" />
    <glyph glyph-name="uni042B" unicode="&#x42b;" horiz-adv-x="745" 
d="M98 0v737h14v-335h207q99 0 153 -49.5t54 -148.5q0 -103 -49.5 -153.5t-157.5 -50.5h-221zM112 13h213q187 0 187 190q0 92 -49 139t-138 47h-213v-376zM633 0v737h14v-737h-14z" />
    <glyph glyph-name="uni042C" unicode="&#x42c;" horiz-adv-x="581" 
d="M98 0v737h14v-335h217q99 0 153 -49.5t54 -148.5q0 -103 -49.5 -153.5t-157.5 -50.5h-231zM112 13h223q187 0 187 190q0 92 -49 139t-138 47h-223v-376z" />
    <glyph glyph-name="uni042D" unicode="&#x42d;" horiz-adv-x="535" 
d="M22 16q76 -28 174 -28q287 0 287 362v30q0 182 -68.5 274.5t-217.5 92.5q-89 0 -171 -26v-16q19 9 71.5 18.5t101.5 9.5q138 0 203.5 -89t65.5 -272h-320v-13h320q0 -359 -273 -359q-101 0 -173 31v-15z" />
    <glyph glyph-name="uni042E" unicode="&#x42e;" horiz-adv-x="957" 
d="M900 345q0 -357 -274 -357q-129 0 -201.5 89.5t-72.5 265.5v24h-240v-367h-14v737h14v-357h240v5q0 181 72.5 271.5t201.5 90.5q136 0 205 -92t69 -270v-40zM886 355v20q0 183 -64.5 271t-195.5 88q-125 0 -192.5 -89.5t-67.5 -269.5v-18q0 -171 66 -263t194 -92
q260 0 260 353z" />
    <glyph glyph-name="uni042F" unicode="&#x42f;" horiz-adv-x="616" 
d="M72 0h14q0 142 20.5 224t56 112.5t94.5 30.5h247v-367h14v737h-247q-85 0 -132 -43t-47 -112v-43q0 -76 37.5 -119.5t95.5 -43.5q-35 -4 -60.5 -21.5t-47.5 -57.5t-33.5 -114.5t-11.5 -182.5zM105 550v23q0 66 40.5 108.5t118.5 42.5h240v-344h-247q-71 0 -111.5 43.5
t-40.5 126.5z" />
    <glyph glyph-name="uni0430" unicode="&#x430;" horiz-adv-x="522" 
d="M460 0h-11l-2 133q-11 -60 -66.5 -100t-137.5 -40q-90 0 -149.5 49.5t-59.5 147.5v6q0 78 54.5 135t153.5 57q73 0 127.5 -34.5t78.5 -100.5v174q0 57 -39 96t-130 39q-49 0 -100 -11.5t-81 -27.5v14q78 37 182 37q94 0 137 -40.5t43 -94.5v-439zM448 188v15
q0 63 -57.5 118t-146.5 55q-87 0 -142.5 -50t-55.5 -122v-19q0 -87 57.5 -134t140.5 -47q93 0 148.5 54t55.5 130z" />
    <glyph glyph-name="uni0431" unicode="&#x431;" horiz-adv-x="596" 
d="M73 431l-2 -55q16 91 75.5 139t156.5 48q122 0 182.5 -68.5t60.5 -194.5v-36q0 -274 -243 -274q-117 0 -180 64t-63 210v176q0 131 65 197.5t205 87.5l132 19v-14l-132 -19q-135 -19 -196 -83t-61 -197zM533 278v8q0 265 -230 265t-230 -265v-8q0 -147 58.5 -211.5
t171.5 -64.5q119 0 174.5 67.5t55.5 208.5z" />
    <glyph glyph-name="uni0432" unicode="&#x432;" horiz-adv-x="489" 
d="M445 157q0 -77 -43.5 -117t-125.5 -40h-203v553h201q67 0 102 -34.5t35 -95.5q0 -48 -21 -82t-67 -40q60 -6 91 -48t31 -96zM399 423q0 118 -124 118h-189v-235h215q41 0 69.5 29.5t28.5 87.5zM433 157q0 63 -37.5 100.5t-102.5 37.5h-207v-283h188q159 0 159 145z" />
    <glyph glyph-name="uni0433" unicode="&#x433;" horiz-adv-x="369" 
d="M86 546v-546h-13v557h272v-11h-259z" />
    <glyph glyph-name="uni0434" unicode="&#x434;" horiz-adv-x="493" 
d="M16 13h22q28 3 44 23.5t28.5 82.5t18.5 177q10 175 14 261h272v-544h20v-186h-13v173h-393v-173h-13v186zM142 296q-9 -144 -24.5 -205t-44.5 -78h329v531h-247q-3 -86 -7.5 -158.5t-5.5 -89.5z" />
    <glyph glyph-name="uni0435" unicode="&#x435;" horiz-adv-x="550" 
d="M517 271h-455q0 -134 62 -201.5t174 -67.5q69 0 116 13.5t67 27.5v-11q-48 -42 -198 -42q-28 0 -55.5 5.5t-61 23.5t-58 46t-41.5 78.5t-17 115.5v40q0 123 69.5 198.5t172.5 75.5q104 0 164.5 -69.5t60.5 -194.5v-38zM503 283q1 138 -53 207.5t-158 69.5
q-100 0 -165 -73t-65 -204h441z" />
    <glyph glyph-name="uni0436" unicode="&#x436;" horiz-adv-x="781" 
d="M178 283q-34 6 -53.5 27t-31.5 81t-12 166h13q0 -107 11 -165t35.5 -81t69.5 -23h174v269h13v-269h174q45 0 69.5 23t35.5 81t11 165h13q0 -106 -12 -166t-31.5 -81t-53.5 -27q26 -3 45.5 -16t36.5 -43t25.5 -86t8.5 -138h-13q0 107 -15.5 169t-43 84.5t-71.5 22.5h-179
v-276h-13v276h-179q-44 0 -71.5 -22.5t-43 -84.5t-15.5 -169h-13q0 82 8.5 138t25.5 86t36.5 43t45.5 16z" />
    <glyph glyph-name="uni0437" unicode="&#x437;" horiz-adv-x="399" 
d="M190 551q64 0 96 -33.5t32 -84.5q0 -130 -144 -130h-69v-14h69q169 0 169 -143q0 -68 -37 -105t-107 -37q-81 0 -131 23v-15q59 -21 131 -21q77 0 117.5 40.5t40.5 114.5q0 70 -39 108t-102 43q58 7 86.5 42.5t28.5 92.5q0 58 -35 95t-106 37q-64 0 -116 -20v-14
q48 21 116 21z" />
    <glyph glyph-name="uni0438" unicode="&#x438;" horiz-adv-x="502" 
d="M73 0h13v9l330 517v-526h13v557h-13v-9l-330 -517v526h-13v-557z" />
    <glyph glyph-name="uni0439" unicode="&#x439;" horiz-adv-x="502" 
d="M73 0h13v9l330 517v-526h13v557h-13v-9l-330 -517v526h-13v-557zM407 748q0 -59 -43 -95t-114 -36t-114 37.5t-43 93.5h12q0 -49 40.5 -85t104.5 -36q67 0 105.5 34t38.5 87h13z" />
    <glyph glyph-name="uni043A" unicode="&#x43a;" horiz-adv-x="475" 
d="M297 283q34 6 53.5 27t31.5 81t12 166h-13q0 -107 -11 -165t-35.5 -81t-69.5 -23h-179v269h-13v-557h13v276h184q44 0 71.5 -22.5t43 -84.5t15.5 -169h13q0 82 -8.5 138t-25.5 86t-36.5 43t-45.5 16z" />
    <glyph glyph-name="uni043B" unicode="&#x43b;" horiz-adv-x="541" 
d="M468 557h-269l-17 -263q-11 -164 -32 -222.5t-77 -58.5q-34 0 -65 18v-14q31 -17 65 -17q65 0 88 61t34 232q8 131 16 251h244v-544h13v557z" />
    <glyph glyph-name="uni043C" unicode="&#x43c;" horiz-adv-x="625" 
d="M552 0h-13v545l-213 -545h-20l-220 550v-550h-13v557h22l221 -550l217 550h19v-557z" />
    <glyph glyph-name="uni043D" unicode="&#x43d;" horiz-adv-x="546" 
d="M473 0h-13v271h-374v-271h-13v557h13v-274h374v274h13v-557z" />
    <glyph glyph-name="uni043E" unicode="&#x43e;" horiz-adv-x="586" 
d="M536 264q0 -274 -243 -274q-117 0 -180 64t-63 210v36q0 126 60.5 199.5t182.5 73.5q121 0 182 -73t61 -200v-36zM523 278v8q0 129 -56.5 202t-173.5 73t-173.5 -73t-56.5 -202v-8q0 -147 58.5 -211.5t171.5 -64.5q119 0 174.5 67.5t55.5 208.5z" />
    <glyph glyph-name="uni043F" unicode="&#x43f;" horiz-adv-x="542" 
d="M456 545h-370v-545h-13v557h396v-557h-13v545z" />
    <glyph glyph-name="uni0440" unicode="&#x440;" horiz-adv-x="560" 
d="M508 268q0 -144 -53 -210t-159 -66q-85 0 -140 39.5t-70 85.5v-284h-13v720h12l1 -122q24 61 76 101.5t128 40.5q110 0 164 -69.5t54 -178.5v-57zM494 277v37q0 111 -49.5 179t-155.5 68q-72 0 -123.5 -40.5t-79.5 -107.5v-278q18 -51 74.5 -91t135.5 -40q100 0 149 63.5
t49 209.5z" />
    <glyph glyph-name="uni0441" unicode="&#x441;" horiz-adv-x="474" 
d="M460 24q-66 -34 -164 -34q-119 0 -182.5 64t-63.5 216v24q0 143 65.5 211t183.5 68q93 0 147 -25v-15q-67 28 -152 28q-107 0 -169.5 -66t-62.5 -207v-10q0 -81 17 -137t50.5 -85.5t73 -41.5t93.5 -12q40 0 88 10t76 25v-13z" />
    <glyph glyph-name="uni0442" unicode="&#x442;" horiz-adv-x="451" 
d="M426 557v-12h-193v-545h-13v545h-195v12h401z" />
    <glyph glyph-name="uni0443" unicode="&#x443;" horiz-adv-x="530" 
d="M527 558l-330 -725h-13l74 162l-255 563h14l248 -551l249 551h13z" />
    <glyph glyph-name="uni0444" unicode="&#x444;" horiz-adv-x="599" 
d="M293 573v164h13v-164q121 0 182 -73t61 -200v-36q0 -274 -243 -274v-157h-13v157q-117 0 -180 64t-63 210v36q0 126 60.5 199.5t182.5 73.5zM306 561v-559q119 0 174.5 67.5t55.5 208.5v8q0 129 -56.5 202t-173.5 73zM63 278q0 -147 58.5 -211.5t171.5 -64.5v559
q-117 0 -173.5 -73t-56.5 -202v-8z" />
    <glyph glyph-name="uni0445" unicode="&#x445;" horiz-adv-x="509" 
d="M503 0h-15l-239 278l-227 -278h-15l235 286l-233 271h15l225 -262l215 262h15l-222 -271z" />
    <glyph glyph-name="uni0446" unicode="&#x446;" horiz-adv-x="539" 
d="M468 0h-395v557h13v-545h362v545h13v-545h20v-194h-13v182z" />
    <glyph glyph-name="uni0447" unicode="&#x447;" horiz-adv-x="465" 
d="M392 557h-13v-293h-165q-67 0 -104 34.5t-37 101.5v157h-13v-158q0 -72 41.5 -109.5t117.5 -37.5h160v-252h13v557z" />
    <glyph glyph-name="uni0448" unicode="&#x448;" horiz-adv-x="636" 
d="M563 0h-490v557h13v-545h224v545h13v-545h228v545h12v-557z" />
    <glyph glyph-name="uni0449" unicode="&#x449;" horiz-adv-x="642" 
d="M323 12h228v545h12v-545h21v-194h-13v182h-498v557h13v-545h224v545h13v-545z" />
    <glyph glyph-name="uni044A" unicode="&#x44a;" horiz-adv-x="527" 
d="M160 0v546h-150v11h163v-252h155q159 0 159 -155q0 -78 -38 -114t-118 -36h-171zM173 12h160q141 0 141 138q0 143 -141 143h-160v-281z" />
    <glyph glyph-name="uni044B" unicode="&#x44b;" horiz-adv-x="560" 
d="M86 12h155q141 0 141 138q0 143 -141 143h-155v-281zM487 0h-13v557h13v-557zM73 0v557h13v-252h150q159 0 159 -155q0 -78 -38 -114t-118 -36h-166z" />
    <glyph glyph-name="uni044C" unicode="&#x44c;" horiz-adv-x="445" 
d="M86 12h165q141 0 141 138q0 143 -141 143h-165v-281zM73 0v557h13v-252h160q159 0 159 -155q0 -78 -38 -114t-118 -36h-176z" />
    <glyph glyph-name="uni044D" unicode="&#x44d;" horiz-adv-x="516" 
d="M56 24q66 -34 164 -34q84 0 135.5 23t81 85.5t29.5 171.5v24q0 151 -61.5 215t-187.5 64q-93 0 -147 -25v-15q67 28 152 28q114 0 173 -62t59 -211v-5h-343v-12h343q-1 -83 -16.5 -137.5t-48 -82.5t-72 -38.5t-97.5 -10.5q-40 0 -88 10t-76 25v-13z" />
    <glyph glyph-name="uni044E" unicode="&#x44e;" horiz-adv-x="791" 
d="M86 0h-13v557h13v-274h189v17q0 126 59 199.5t174 73.5q113 0 173 -76t60 -197v-36q0 -134 -61.5 -204t-171.5 -70q-108 0 -170.5 67.5t-62.5 206.5v7h-189v-271zM728 278v8q0 124 -55.5 199.5t-164.5 75.5q-110 0 -165 -72.5t-55 -202.5v-8q0 -276 220 -276t220 276z
" />
    <glyph glyph-name="uni044F" unicode="&#x44f;" horiz-adv-x="474" 
d="M62 0h13q0 158 31 217.5t98 59.5h184v-277h13v557h-189q-64 0 -99.5 -32.5t-35.5 -84.5v-34q0 -57 28 -89.5t73 -32.5q-56 -6 -86 -66.5t-30 -217.5zM89 415v16q0 50 30.5 82t89.5 32h179v-256h-184q-54 0 -84.5 31.5t-30.5 94.5z" />
    <glyph glyph-name="uni0451" unicode="&#x451;" horiz-adv-x="550" 
d="M517 271h-455q0 -134 62 -201.5t174 -67.5q69 0 116 13.5t67 27.5v-11q-48 -42 -198 -42q-28 0 -55.5 5.5t-61 23.5t-58 46t-41.5 78.5t-17 115.5v40q0 123 69.5 198.5t172.5 75.5q104 0 164.5 -69.5t60.5 -194.5v-38zM503 283q1 138 -53 207.5t-158 69.5
q-100 0 -165 -73t-65 -204h441zM400 649q0 -14 -15 -14t-15 14t15 14t15 -14zM196 649q0 -14 -15 -14t-15 14t15 14t15 -14z" />
    <glyph glyph-name="uni0452" unicode="&#x452;" horiz-adv-x="590" 
d="M315 667h-195v-282q19 61 83 104.5t139 43.5q91 0 133.5 -38t42.5 -102v-464q0 -100 -90 -100q-46 0 -98 13v14q45 -17 98 -17q34 0 55.5 22.5t21.5 58.5v467q0 62 -40 98t-123 36q-72 0 -135 -44t-86 -116v-361h-13v667h-120v11h120v59h12v-59h195v-11z" />
    <glyph glyph-name="uni0453" unicode="&#x453;" horiz-adv-x="365" 
d="M86 546v-546h-13v557h272v-11h-259zM175 596l142 173h14l-142 -173h-14z" />
    <glyph glyph-name="uni0454" unicode="&#x454;" horiz-adv-x="516" 
d="M460 24q-66 -34 -164 -34q-84 0 -135.5 23t-81 85.5t-29.5 171.5v24q0 151 61.5 215t187.5 64q93 0 147 -25v-15q-67 28 -152 28q-114 0 -173 -62t-59 -211v-5h343v-12h-343q1 -83 16.5 -137.5t48 -82.5t72 -38.5t97.5 -10.5q40 0 88 10t76 25v-13z" />
    <glyph glyph-name="uni0455" unicode="&#x455;" horiz-adv-x="422" 
d="M375 142q0 -152 -177 -152q-106 0 -164 31v18q49 -37 162 -37q73 0 119.5 33.5t46.5 106.5q0 35 -13 60.5t-40.5 43.5t-50.5 28t-64 23q-34 11 -56 21t-45 26.5t-34.5 40.5t-11.5 56q0 64 45 98t106 34q86 0 148 -31v-18q-58 36 -152 36q-62 0 -98 -34.5t-36 -83.5
q0 -53 35 -80.5t104 -51.5q86 -30 115 -49q61 -42 61 -119z" />
    <glyph glyph-name="uni0456" unicode="&#x456;" horiz-adv-x="175" 
d="M106 629h-33v51h33v-51zM96 0h-13v562h13v-562z" />
    <glyph glyph-name="uni0457" unicode="&#x457;" horiz-adv-x="175" 
d="M96 0h-13v562h13v-562zM204 649q0 -14 -15 -14t-15 14t15 14t15 -14zM0 649q0 -14 -15 -14t-15 14t15 14t15 -14z" />
    <glyph glyph-name="uni0458" unicode="&#x458;" horiz-adv-x="185" 
d="M111 629h-33v51h33v-51zM101 -71q0 -100 -90 -100q-46 0 -98 13v14q45 -17 98 -17q34 0 55.5 22.5t21.5 58.5v642h13v-633z" />
    <glyph glyph-name="uni0459" unicode="&#x459;" horiz-adv-x="768" 
d="M409 12h165q141 0 141 138q0 143 -141 143h-165v-281zM396 0v541h-245v-104q0 -437 -107 -437v12q94 0 94 425v116h271v-248h160q159 0 159 -155q0 -78 -38 -114t-118 -36h-176z" />
    <glyph glyph-name="uni045A" unicode="&#x45a;" horiz-adv-x="832" 
d="M473 12h165q141 0 141 138q0 143 -141 143h-165v-281zM460 0v271h-374v-271h-13v553h13v-270h374v270h13v-248h160q159 0 159 -155q0 -78 -38 -114t-118 -36h-176z" />
    <glyph glyph-name="uni045B" unicode="&#x45b;" horiz-adv-x="590" 
d="M315 667h-195v-282q19 61 83 104.5t139 43.5q91 0 133.5 -38t42.5 -102v-393h-13v387q0 62 -40 98t-123 36q-72 0 -135 -44t-86 -116v-361h-13v667h-120v11h120v59h12v-59h195v-11z" />
    <glyph glyph-name="uni045C" unicode="&#x45c;" horiz-adv-x="475" 
d="M201 596l142 173h14l-142 -173h-14zM297 283q34 6 53.5 27t31.5 81t12 166h-13q0 -107 -11 -165t-35.5 -81t-69.5 -23h-179v269h-13v-557h13v276h184q44 0 71.5 -22.5t43 -84.5t15.5 -169h13q0 82 -8.5 138t-25.5 86t-36.5 43t-45.5 16z" />
    <glyph glyph-name="uni045E" unicode="&#x45e;" horiz-adv-x="530" 
d="M527 558l-330 -725h-13l74 162l-255 563h14l248 -551l249 551h13zM422 748q0 -59 -43 -95t-114 -36t-114 37.5t-43 93.5h12q0 -49 40.5 -85t104.5 -36q67 0 105.5 34t38.5 87h13z" />
    <glyph glyph-name="uni045F" unicode="&#x45f;" horiz-adv-x="538" 
d="M263 0h-190v553h13v-541h366v541h13v-553h-189v-182h-13v182z" />
    <glyph glyph-name="uni0490" unicode="&#x490;" horiz-adv-x="511" 
d="M482 724v109h-14v-96h-370v-737h14v724h370z" />
    <glyph glyph-name="uni0491" unicode="&#x491;" horiz-adv-x="369" 
d="M86 542v-542h-13v553h261v88h11v-99h-259z" />
    <glyph glyph-name="endash" unicode="&#x2013;" 
d="M451 320h-402v13h402v-13z" />
    <glyph glyph-name="emdash" unicode="&#x2014;" horiz-adv-x="833" 
d="M767 320h-698v13h698v-13z" />
    <glyph glyph-name="quoteleft" unicode="&#x2018;" horiz-adv-x="172" 
d="M114 573h-52v100q0 41 15.5 57t48.5 16v-13q-30 0 -40.5 -13.5t-10.5 -59.5h39v-87z" />
    <glyph glyph-name="quoteright" unicode="&#x2019;" horiz-adv-x="172" 
d="M111 638q0 -41 -15.5 -57t-48.5 -16v13q30 0 40.5 13.5t10.5 59.5h-39v87h52v-100z" />
    <glyph glyph-name="quotesinglbase" unicode="&#x201a;" horiz-adv-x="172" 
d="M111 -13q0 -41 -15.5 -57t-48.5 -16v13q30 0 40.5 13.5t10.5 59.5h-39v87h52v-100z" />
    <glyph glyph-name="quotedblleft" unicode="&#x201c;" horiz-adv-x="325" 
d="M274 573h-52v100q0 41 15.5 57t48.5 16v-13q-30 0 -40.5 -13.5t-10.5 -59.5h39v-87zM114 573h-52v100q0 41 15.5 57t48.5 16v-13q-30 0 -40.5 -13.5t-10.5 -59.5h39v-87z" />
    <glyph glyph-name="quotedblright" unicode="&#x201d;" horiz-adv-x="325" 
d="M271 638q0 -41 -15.5 -57t-48.5 -16v13q30 0 40.5 13.5t10.5 59.5h-39v87h52v-100zM111 638q0 -41 -15.5 -57t-48.5 -16v13q30 0 40.5 13.5t10.5 59.5h-39v87h52v-100z" />
    <glyph glyph-name="quotedblbase" unicode="&#x201e;" horiz-adv-x="325" 
d="M271 -13q0 -41 -15.5 -57t-48.5 -16v13q30 0 40.5 13.5t10.5 59.5h-39v87h52v-100zM111 -13q0 -41 -15.5 -57t-48.5 -16v13q30 0 40.5 13.5t10.5 59.5h-39v87h52v-100z" />
    <glyph glyph-name="dagger" unicode="&#x2020;" horiz-adv-x="378" 
d="M375 512h-178v-679h-14v679h-176v13h176v212h14v-212h178v-13z" />
    <glyph glyph-name="daggerdbl" unicode="&#x2021;" horiz-adv-x="379" 
d="M373 382h-176v-549h-14v549h-174v12h174v119h-176v12h176v212h14v-212h178v-12h-178v-119h176v-12z" />
    <glyph glyph-name="bullet" unicode="&#x2022;" horiz-adv-x="583" 
d="M266 375q0 10 7.5 17.5t17.5 7.5t17.5 -7.5t7.5 -17.5t-7.5 -17.5t-17.5 -7.5t-17.5 7.5t-7.5 17.5z" />
    <glyph glyph-name="ellipsis" unicode="&#x2026;" horiz-adv-x="858" 
d="M746 0h-52v87h52v-87zM460 0h-52v87h52v-87zM174 0h-52v87h52v-87z" />
    <glyph glyph-name="perthousand" unicode="&#x2030;" horiz-adv-x="1170" 
d="M339 562q0 -78 -44 -118.5t-111 -40.5t-110 38t-43 121v27q0 81 43 120t112 39q67 0 110 -38t43 -121v-27zM635 737l-449 -737h-14l448 737h15zM1132 153q0 -78 -44 -118.5t-111 -40.5t-110 38t-43 121v27q0 81 43 120t112 39q67 0 110 -38t43 -121v-27zM776 153
q0 -78 -44 -118.5t-111 -40.5t-110 38t-43 121v27q0 81 43 120t112 39q67 0 110 -38t43 -121v-27zM327 566v18q0 79 -41 116t-100 37q-62 0 -104.5 -38.5t-38.5 -113.5v-18q0 -79 41 -116t100 -37q61 0 102 38t41 114zM1120 157v18q0 79 -41 116t-100 37q-61 0 -102 -38
t-41 -114v-18q0 -79 41 -116t100 -37q61 0 102 38t41 114zM764 157v18q0 79 -41 116t-100 37q-61 0 -102 -38t-41 -114v-18q0 -79 41 -116t100 -37q61 0 102 38t41 114z" />
    <glyph glyph-name="guilsinglleft" unicode="&#x2039;" horiz-adv-x="318" 
d="M291 136l-262 160v14l262 160v-13l-253 -154l253 -154v-13z" />
    <glyph glyph-name="guilsinglright" unicode="&#x203a;" horiz-adv-x="318" 
d="M27 136v13l253 154l-253 154v13l262 -160v-14z" />
    <glyph glyph-name="fraction" unicode="&#x2044;" horiz-adv-x="370" 
d="M419 737l-452 -737h-16l452 737h16z" />
    <glyph glyph-name="fraction" unicode="&#x2215;" horiz-adv-x="370" 
d="M419 737l-452 -737h-16l452 737h16z" />
    <glyph glyph-name="Euro" unicode="&#x20ac;" horiz-adv-x="484" 
d="M436 16q-46 -27 -126 -27q-102 0 -159 82t-57 249h-67v12h67v72h-67v12h67q0 167 57 249t159 82q79 0 131 -31v-15q-22 14 -60.5 23.5t-71.5 9.5q-92 0 -146.5 -81.5t-54.5 -236.5h338v-12h-338v-72h338v-12h-338q0 -155 54.5 -236.5t146.5 -81.5q80 0 127 29v-15z" />
    <glyph glyph-name="uni2116" unicode="&#x2116;" horiz-adv-x="1032" 
d="M562 0h-21l-429 731v-731h-14v737h26l424 -725v725h14v-737zM982 573q0 -93 -38.5 -137t-117.5 -44q-71 0 -114 43.5t-43 137.5q0 81 43.5 128t112.5 47q74 0 115.5 -46t41.5 -129zM972 325v-12h-292v12h292zM970 573q0 78 -38 121t-107 43q-63 0 -103.5 -43t-40.5 -121
q0 -88 40 -129t105 -41q74 0 109 41t35 129z" />
    <glyph glyph-name="trademark" unicode="&#x2122;" horiz-adv-x="684" 
d="M624 720l-132 -132h-12l-132 132v-278h-14v297h14l138 -138l138 138h14v-297h-14v278zM272 724h-118v-284h-14v284h-118v13h250v-13z" />
    <glyph glyph-name="partialdiff" unicode="&#x2202;" horiz-adv-x="518" 
d="M506 275q0 -140 -69 -212t-175 -72q-102 0 -173 75.5t-71 191.5q0 120 69 192.5t169 72.5q86 0 149 -47t87 -118q-5 173 -67.5 278.5t-175.5 105.5q-60 0 -92.5 -10.5t-68.5 -33.5v14q26 15 38.5 21t46.5 14t77 8q115 0 185.5 -109.5t70.5 -323.5v-47zM491 280
q0 108 -72 170t-164 62q-39 0 -77.5 -15t-72 -44t-54.5 -78t-21 -110v-15q0 -99 66.5 -173.5t166.5 -74.5q104 0 166 70.5t62 184.5v23z" />
    <glyph glyph-name="product" unicode="&#x220f;" horiz-adv-x="574" 
d="M562 723h-126v-723h-14v723h-270v-723h-14v723h-125v14h549v-14z" />
    <glyph glyph-name="summation" unicode="&#x2211;" horiz-adv-x="580" 
d="M533 0h-477v7l361 361l-366 366v3h422v-13h-395l356 -356l-355 -355h454v-13z" />
    <glyph glyph-name="minus" unicode="&#x2212;" horiz-adv-x="472" 
d="M420 366h-369v15h369v-15z" />
    <glyph glyph-name="radical" unicode="&#x221a;" horiz-adv-x="491" 
d="M559 737l-382 -761h-19l-138 226l18 2l130 -214l374 747h17z" />
    <glyph glyph-name="infinity" unicode="&#x221e;" horiz-adv-x="694" 
d="M591 327q0 -50 -30.5 -81t-85.5 -31q-31 0 -61 17t-48 35.5t-45 51.5q-27 -34 -44 -52t-46 -35t-59 -17q-59 0 -93 32.5t-34 85.5q0 51 31 81.5t91 30.5q44 0 79 -28.5t75 -80.5q30 36 48.5 55t48.5 36t62 17q50 0 80.5 -32t30.5 -85zM579 327q0 45 -26 75.5t-76 30.5
q-40 0 -74 -27t-75 -79q26 -32 43 -49.5t46 -34t58 -16.5q48 0 76 27t28 73zM314 328q-29 36 -45 53t-44.5 34.5t-57.5 17.5q-54 0 -82 -27t-28 -73q0 -49 29.5 -77.5t85.5 -28.5q28 0 55.5 17t43 33.5t43.5 50.5z" />
    <glyph glyph-name="integral" unicode="&#x222b;" horiz-adv-x="336" 
d="M364 727l-10 -12q-22 19 -63 19q-43 0 -69.5 -34.5t-26.5 -88.5v-643q0 -65 -31.5 -103t-80.5 -38q-38 0 -70 20l10 12q22 -19 63 -19q43 0 69.5 34.5t26.5 88.5v643q0 65 31.5 103t80.5 38q38 0 70 -20z" />
    <glyph glyph-name="approxequal" unicode="&#x2248;" horiz-adv-x="636" 
d="M594 437q0 -58 -34 -95.5t-90 -37.5q-33 0 -57.5 9t-43.5 28.5t-29 35t-26 44.5q-16 30 -25.5 45t-28 35t-41.5 29t-53 9q-45 0 -76.5 -33t-31.5 -88q0 -51 31 -113h-12q-33 68 -33 115q0 55 35 94t89 39q23 0 42 -4t34.5 -15.5t25 -18.5t22.5 -27.5t17 -27t17 -31.5
q15 -27 25 -42.5t27.5 -33.5t40.5 -26.5t53 -8.5q46 0 77 34t31 87q0 51 -31 113h12q33 -68 33 -115zM594 173q0 -58 -34 -95.5t-90 -37.5q-33 0 -57.5 9t-43.5 28.5t-29 35t-26 44.5q-16 30 -25.5 45t-28 35t-41.5 29t-53 9q-45 0 -76.5 -33t-31.5 -88q0 -51 31 -113h-12
q-33 68 -33 115q0 55 35 94t89 39q23 0 42 -4t34.5 -15.5t25 -18.5t22.5 -27.5t17 -27t17 -31.5q15 -27 25 -42.5t27.5 -33.5t40.5 -26.5t53 -8.5q46 0 77 34t31 87q0 51 -31 113h12q33 -68 33 -115z" />
    <glyph glyph-name="notequal" unicode="&#x2260;" horiz-adv-x="495" 
d="M433 186h-250l-58 -75l-11 7l53 68h-106v13h116l128 165h-244v13h254l82 106l10 -6l-77 -100h103v-13h-113l-127 -165h240v-13z" />
    <glyph glyph-name="lessequal" unicode="&#x2264;" horiz-adv-x="341" 
d="M302 137l-277 220v13l277 223v-17l-268 -213l268 -209v-17zM302 0h-277v13h277v-13z" />
    <glyph glyph-name="greaterequal" unicode="&#x2265;" horiz-adv-x="341" 
d="M34 137v17l268 209l-268 213v17l277 -223v-13zM34 0v13h277v-13h-277z" />
    <glyph glyph-name="lozenge" unicode="&#x25ca;" horiz-adv-x="585" 
d="M488 334l-198 -198l-198 199l198 198zM469 334l-179 179l-179 -179l179 -179z" />
    <glyph glyph-name="apple" unicode="&#xf8ff;" horiz-adv-x="884" 
d="M634 758q0 -23 -9.5 -52t-28 -58t-52.5 -49.5t-77 -21.5q3 167 164 203q3 -17 3 -22zM262 758q0 6 3 22q161 -36 164 -203q-43 1 -77 21.5t-52.5 49.5t-28 58t-9.5 52zM452 529q9 0 69 21t89 21q87 0 143 -72.5t56 -186.5q0 -80 -35 -170.5t-88 -151t-101 -60.5
q-17 0 -66 17t-72 17q-21 0 -71 -17t-67 -17q-48 0 -101 60.5t-88 151t-35 170.5q0 114 56 186.5t143 72.5q29 0 95 -21t73 -21zM450 495q-5 1 -31.5 12.5t-37.5 11.5q-14 0 -27.5 -60.5t-13.5 -116.5q0 -43 12 -125t38 -159.5t56 -77.5q45 0 83.5 132.5t38.5 226.5
q0 80 -13 130t-34 50q-15 0 -39 -12.5t-32 -11.5zM451 375q-4 40 -4 71q0 11 1.5 21t3.5 15l1 5q5 -16 5 -40q0 -14 -7 -72zM484 420q3 -26 -4 -58t-26 -43q-9 79 28 111q2 -5 2 -10zM416 420q0 5 2 10q37 -32 28 -111q-19 11 -26 43t-4 58zM383 313q-3 6 -3 8q31 42 64 -12
q-11 -18 -24 -19.5t-22.5 6t-14.5 17.5zM517 303q3 -6 3 -8q-31 -42 -64 12q11 18 24 19.5t22.5 -6t14.5 -17.5zM484 196q0 -5 -2 -10q-37 32 -28 111q19 -11 26 -43t4 -58zM416 196q-3 26 4 58t26 43q9 -79 -28 -111q-2 5 -2 10zM448 12q-3 17 -3 34.5t1 36.5t1 25
q0 2 -1 30t0 48.5t4 33.5q10 -37 10 -115q0 -52 -12 -93z" />
    <glyph glyph-name="NUL" horiz-adv-x="0" 
 />
    <glyph glyph-name="CR" horiz-adv-x="259" 
 />
    <glyph glyph-name="nbspace" horiz-adv-x="130" 
 />
    </font>
</defs>
</svg>
